<svg width="14" height="14" viewBox="0 0 14 14" fill="none" xmlns="http://www.w3.org/2000/svg">
<path d="M0.636418 12.3031C0.343525 12.596 0.343525 13.0709 0.636418 13.3637C0.929311 13.6566 1.40418 13.6566 1.69708 13.3637L0.636418 12.3031ZM7.53041 7.53041C7.8233 7.23752 7.8233 6.76264 7.53041 6.46975C7.23752 6.17686 6.76264 6.17686 6.46975 6.46975L7.53041 7.53041ZM6.46975 6.46975C6.17686 6.76264 6.17686 7.23752 6.46975 7.53041C6.76264 7.8233 7.23752 7.8233 7.53041 7.53041L6.46975 6.46975ZM13.3637 1.69708C13.6566 1.40418 13.6566 0.929311 13.3637 0.636418C13.0709 0.343525 12.596 0.343525 12.3031 0.636418L13.3637 1.69708ZM7.53041 6.46975C7.23752 6.17686 6.76264 6.17686 6.46975 6.46975C6.17686 6.76264 6.17686 7.23752 6.46975 7.53041L7.53041 6.46975ZM12.3031 13.3637C12.596 13.6566 13.0709 13.6566 13.3637 13.3637C13.6566 13.0709 13.6566 12.596 13.3637 12.3031L12.3031 13.3637ZM6.46975 7.53041C6.76264 7.8233 7.23752 7.8233 7.53041 7.53041C7.8233 7.23752 7.8233 6.76264 7.53041 6.46975L6.46975 7.53041ZM1.69708 0.636418C1.40418 0.343525 0.929311 0.343525 0.636418 0.636418C0.343525 0.929311 0.343525 1.40418 0.636418 1.69708L1.69708 0.636418ZM1.16675 12.8334L1.69708 13.3637L7.53041 7.53041L7.00008 7.00008L6.46975 6.46975L0.636418 12.3031L1.16675 12.8334ZM7.00008 7.00008L7.53041 7.53041L13.3637 1.69708L12.8334 1.16675L12.3031 0.636418L6.46975 6.46975L7.00008 7.00008ZM7.00008 7.00008L6.46975 7.53041L12.3031 13.3637L12.8334 12.8334L13.3637 12.3031L7.53041 6.46975L7.00008 7.00008ZM7.00008 7.00008L7.53041 6.46975L1.69708 0.636418L1.16675 1.16675L0.636418 1.69708L6.46975 7.53041L7.00008 7.00008Z" fill="white"/>
</svg>
