<svg width="31" height="30" viewBox="0 0 31 30" fill="none" xmlns="http://www.w3.org/2000/svg">
<path fill-rule="evenodd" clip-rule="evenodd" d="M15.1971 0.0263672C23.5983 0.0263672 30.4089 6.74045 30.4089 15.0242C30.4089 23.308 23.5983 30.0246 15.1971 30.0246C6.79588 30.0246 -0.0146484 23.308 -0.0146484 15.0242C-0.0146484 6.74039 6.79642 0.0263672 15.1971 0.0263672ZM23.6383 15.2856C23.899 15.214 24.1293 15.0611 24.2947 14.8499C24.4602 14.6386 24.5519 14.3803 24.5563 14.1134C24.5606 13.8465 24.4774 13.5854 24.3189 13.369C24.1605 13.1526 23.9353 12.9925 23.6771 12.9126H16.8477C16.7956 12.9126 16.7442 12.8997 16.6984 12.8751C16.6527 12.8505 16.6138 12.815 16.5856 12.7718C16.5573 12.7286 16.5405 12.6791 16.5367 12.6278C16.5328 12.5765 16.5421 12.5251 16.5636 12.4782C17.1856 11.1206 17.5288 9.6801 17.5555 8.31223C17.4835 7.40988 16.9662 6.70189 16.0174 6.20807C15.9134 6.15377 15.7968 6.12693 15.6791 6.13017C15.5614 6.13341 15.4466 6.16661 15.3457 6.22655C15.2449 6.28649 15.1615 6.37113 15.1036 6.47224C15.0458 6.57336 15.0154 6.68751 15.0155 6.80361V9.17309C15.0153 9.21938 15.0047 9.26505 14.9845 9.30686L12.965 13.433C12.9325 13.4998 12.8765 13.5525 12.8074 13.5816L12.1497 13.8612V22.8083L14.2265 23.9241H21.5874C21.8274 23.9178 22.0602 23.8422 22.257 23.7067C22.4538 23.5712 22.6059 23.3817 22.6945 23.1617C22.783 22.9417 22.8042 22.7009 22.7553 22.4692C22.7064 22.2374 22.5896 22.025 22.4193 21.8581C22.3791 21.8188 22.3504 21.7694 22.3365 21.7152C22.3226 21.6611 22.3239 21.6042 22.3404 21.5507C22.3568 21.4973 22.3877 21.4492 22.4297 21.4118C22.4718 21.3743 22.5234 21.3489 22.579 21.3382C22.8276 21.2903 23.0591 21.1785 23.2498 21.0141C23.4406 20.8497 23.5839 20.6385 23.6654 20.4019C23.7468 20.1653 23.7634 19.9117 23.7135 19.6668C23.6636 19.4218 23.5489 19.1942 23.3812 19.007C23.3487 18.9707 23.3254 18.9273 23.3131 18.8804C23.3009 18.8336 23.3001 18.7845 23.3107 18.7372C23.3213 18.69 23.3431 18.6458 23.3743 18.6085C23.4055 18.5711 23.4452 18.5415 23.4902 18.5221C23.7492 18.4098 23.9707 18.2275 24.1292 17.9964C24.2876 17.7653 24.3766 17.4947 24.3858 17.2158C24.395 16.937 24.3241 16.6612 24.1812 16.4204C24.0384 16.1796 23.8293 15.9835 23.5783 15.8548C23.5227 15.8264 23.477 15.7822 23.4473 15.7278C23.4175 15.6735 23.4051 15.6116 23.4115 15.5501C23.418 15.4887 23.443 15.4306 23.4835 15.3834C23.5239 15.3362 23.5778 15.3022 23.6382 15.2856H23.6383ZM11.5257 23.061V13.2045C11.5255 13.0473 11.4621 12.8966 11.3493 12.7854C11.2366 12.6743 11.0838 12.6117 10.9243 12.6115H6.43972C6.28029 12.6117 6.12745 12.6743 6.01471 12.7854C5.90197 12.8966 5.83854 13.0473 5.83832 13.2045V23.061C5.83852 23.2183 5.90195 23.369 6.01469 23.4801C6.12743 23.5913 6.28028 23.6539 6.43972 23.6541H10.9243C11.0838 23.6538 11.2366 23.5913 11.3493 23.4801C11.4621 23.369 11.5255 23.2183 11.5257 23.061Z" fill="url(#paint0_linear_267_4338)"/>
<defs>
<linearGradient id="paint0_linear_267_4338" x1="-0.014589" y1="15.0255" x2="30.4088" y2="15.0255" gradientUnits="userSpaceOnUse">
<stop stop-color="#61DFFF"/>
<stop offset="1" stop-color="#009EB7"/>
</linearGradient>
</defs>
</svg>
