<svg width="68" height="82" viewBox="0 0 68 82" fill="none" xmlns="http://www.w3.org/2000/svg">
<path fill-rule="evenodd" clip-rule="evenodd" d="M28.3893 56.051C28.3075 54.7296 28.9028 51.3036 29.2755 49.9953C29.8696 47.9102 32.6523 48.623 34.9548 48.643C38.3481 48.6727 45.8552 47.9586 47.7794 49.7322C48.9119 50.7761 49.4398 52.9644 48.3041 54.6104C47.1317 56.3097 45.1193 56.1658 42.4998 56.1571C38.1242 56.1428 32.6243 56.451 28.3893 56.051ZM32.9171 33.1268C32.6534 31.381 33.4439 27.2477 34.269 25.9743C37.2024 25.5708 41.777 25.8524 44.9008 25.8381C48.3173 25.8223 51.8354 26.3219 51.0529 30.3685C50.3624 33.9393 46.0016 33.3562 43.5286 33.3489C40.8455 33.3407 34.9752 33.6679 32.9171 33.1268ZM56.7483 42.023C57.7342 44.8401 61.6074 47.5813 60.2577 55.2341C59.4413 59.864 56.2593 63.4716 53.4903 65.2353C49.0031 68.0931 44.9683 67.6773 39.0701 67.6744C33.4683 67.6716 27.8682 67.6789 22.2661 67.6791C18.3219 67.6791 9.11739 68.3857 6.51325 66.5576C2.30793 63.6054 4.13977 59.0875 5.11077 53.9567C6.84552 44.7901 8.58056 34.9631 10.5959 25.9946L17.8768 25.8472C18.1726 30.0202 11.0004 58.5086 11.9502 59.7139C12.6559 60.6094 30.3017 60.174 31.1825 60.1728C36.212 60.1666 46.1404 61.1864 49.7059 58.7431C54.1911 55.6694 53.9962 48.7716 49.271 45.865C44.9767 43.2234 34.1972 46.0062 30.8103 44.463C30.1318 43.0269 31.2958 38.9242 31.93 37.3593C38.0936 36.7445 48.19 38.7517 52.4036 35.5098C54.2282 34.1058 55.9241 30.7913 54.8488 27.3269C53.9298 24.3665 52.0549 22.7395 48.9639 21.9421C48.9098 20.4765 49.4433 17.6064 49.7849 16.2081C50.1074 14.8866 50.0957 14.6311 51.5468 14.8916C55.1201 15.5331 59.1542 19.1161 60.9773 22.6223C63.4743 27.4247 63.3164 33.7717 59.9013 38.1811C58.8192 39.5784 57.3597 40.568 56.7483 42.023ZM61.9482 42.3642C65.2371 37.3217 68.4365 32.1057 65.8877 23.8963C64.186 18.415 59.789 13.7439 54.7376 11.7811C52.0287 10.7283 48.5418 10.3519 44.8896 10.25H39.5107C37.0733 10.2969 34.6943 10.3787 32.5542 10.3779C31.063 10.3773 28.7694 10.3152 26.1837 10.25H9.40824C8.19921 15.2264 9.82485 14.3123 15.0643 14.3269L44.8538 14.4096C45.6861 14.5615 45.2941 14.4796 45.6672 14.6855C46.1224 15.928 45.0769 20.5168 44.4104 21.8003L44.3106 21.7985V21.8312H30.7521C29.3666 26.207 28.2375 34.4003 27.3114 39.2259C26.7513 42.1449 24.7233 54.3932 23.7525 56.1207C17.7386 56.6456 16.2359 56.8087 16.7667 53.9928C16.9002 53.284 17.0373 52.7469 17.19 51.9635L19.6867 39.106C20.2606 36.1617 22.9392 24.3177 22.7429 21.8312H7.15393C6.28888 24.4583 1.60467 50.91 1.04518 53.9571C-0.0685413 60.0205 -1.26045 65.3326 3.03176 68.9869C7.33117 72.6474 12.8091 71.6103 19.5225 71.6257C25.9236 71.6403 32.3259 71.6236 38.7272 71.6284C45.4581 71.6336 50.0651 72.0047 55.145 68.9302C58.9175 66.6469 62.0486 63.1741 63.6334 58.2546C66.4702 49.4495 61.7037 43.6324 61.9482 42.3642Z" fill="url(#paint0_linear_1039_26405)"/>
<defs>
<linearGradient id="paint0_linear_1039_26405" x1="4.57951" y1="41.4777" x2="66.8101" y2="41.4777" gradientUnits="userSpaceOnUse">
<stop stop-color="#0077FF"/>
<stop offset="1" stop-color="#3D97FF"/>
</linearGradient>
</defs>
</svg>
