<svg width="12" height="12" viewBox="0 0 12 12" fill="none" xmlns="http://www.w3.org/2000/svg">
<path fill-rule="evenodd" clip-rule="evenodd" d="M7.58486 3.01286L6.44251 0.841226C6.25509 0.484925 5.74491 0.484925 5.55749 0.841226L4.41514 3.01286C4.30318 3.23302 4.14112 3.42385 3.942 3.57C3.74191 3.7169 3.51037 3.8152 3.26571 3.85714L0.829824 4.33473C0.45663 4.4079 0.2985 4.85439 0.542457 5.14613L2.28 7.224C2.59181 7.56573 2.73893 8.02652 2.68286 8.48571L2.36168 11.0881C2.31315 11.4813 2.71943 11.7721 3.07597 11.5993L5.256 10.5429C5.48796 10.4305 5.74227 10.3719 6 10.3714C6.24182 10.3722 6.47992 10.431 6.69429 10.5429L8.96257 11.5506C9.31814 11.7086 9.70995 11.4178 9.66173 11.0317L9.33771 8.43772C9.2829 7.97953 9.43028 7.52019 9.74143 7.17943L11.4531 5.14682C11.6986 4.85534 11.5408 4.4074 11.1669 4.33409L8.73429 3.85714C8.48933 3.81533 8.25749 3.71702 8.05714 3.57C7.85833 3.42375 7.69658 3.23293 7.58486 3.01286Z" fill="#FF9F10"/>
</svg>
