<svg width="24" height="26" viewBox="0 0 24 26" fill="none" xmlns="http://www.w3.org/2000/svg">
<path d="M0.403076 1L3.07626 1.97207C4.11106 2.34836 4.80308 3.35609 4.80308 4.48671V10.3333C4.80308 14.0152 7.70006 17 11.2737 17H16.0619C19.564 17 22.4031 14.0749 22.4031 10.4667C22.4031 6.85841 19.564 3.93333 16.0619 3.93333H9.20308M9.4619 22.3333C9.4619 23.8061 8.30311 25 6.87366 25C5.44422 25 4.28543 23.8061 4.28543 22.3333C4.28543 20.8606 5.44422 19.6667 6.87366 19.6667C8.30311 19.6667 9.4619 20.8606 9.4619 22.3333ZM22.4031 22.3333C22.4031 23.8061 21.2443 25 19.8148 25C18.3854 25 17.2266 23.8061 17.2266 22.3333C17.2266 20.8606 18.3854 19.6667 19.8148 19.6667C21.2443 19.6667 22.4031 20.8606 22.4031 22.3333Z" stroke="#F7F7F7" stroke-width="1.5" stroke-linecap="round" stroke-linejoin="round"/>
</svg>
