<svg width="512" height="512" viewBox="0 0 512 512" fill="none" xmlns="http://www.w3.org/2000/svg">
<rect width="512" height="512" rx="140" fill="url(#paint0_radial_1039_25519)"/>
<path fill-rule="evenodd" clip-rule="evenodd" d="M232.877 325.504C232.5 319.402 235.244 303.581 236.962 297.539C239.701 287.911 252.53 291.202 263.145 291.294C278.788 291.432 313.397 288.134 322.267 296.324C327.488 301.145 329.922 311.25 324.686 318.851C319.281 326.698 310.004 326.034 297.928 325.994C277.756 325.928 252.401 327.351 232.877 325.504ZM253.751 219.643C252.535 211.581 256.179 192.493 259.983 186.613C273.506 184.75 294.596 186.05 308.996 185.984C324.747 185.911 340.965 188.218 337.358 206.905C334.175 223.395 314.071 220.702 302.671 220.668C290.301 220.63 263.239 222.141 253.751 219.643ZM363.614 260.724C368.159 273.733 386.015 286.392 379.793 321.731C376.029 343.112 361.36 359.771 348.595 367.916C327.908 381.113 309.308 379.193 282.116 379.18C256.292 379.166 230.475 379.2 204.649 379.201C186.466 379.201 144.032 382.464 132.027 374.022C112.64 360.389 121.085 339.526 125.561 315.832C133.558 273.502 141.557 228.123 150.848 186.707L184.414 186.026C185.777 205.297 152.713 336.853 157.092 342.419C160.345 346.554 241.693 344.543 245.754 344.538C268.941 344.509 314.711 349.218 331.148 337.936C351.826 323.742 350.927 291.889 329.143 278.466C309.346 266.267 259.652 279.118 244.038 271.992C240.91 265.36 246.276 246.414 249.2 239.188C277.614 236.349 324.16 245.618 343.585 230.647C351.997 224.163 359.815 208.858 354.857 192.859C350.621 179.189 341.978 171.675 327.728 167.993C327.478 161.225 329.938 147.971 331.512 141.514C332.999 135.411 332.945 134.231 339.635 135.435C356.108 138.397 374.706 154.943 383.111 171.134C394.622 193.311 393.894 222.621 378.15 242.983C373.162 249.435 366.433 254.005 363.614 260.724ZM387.586 262.3C402.749 239.014 417.498 214.927 405.748 177.017C397.903 151.705 377.632 130.135 354.345 121.07C341.857 116.209 325.782 114.471 308.945 114H284.148C272.911 114.216 261.944 114.594 252.078 114.591C245.203 114.588 234.629 114.301 222.709 114H145.373C139.799 136.98 147.293 132.759 171.448 132.827L308.78 133.208C312.617 133.91 310.81 133.532 312.53 134.483C314.628 140.22 309.808 161.411 306.736 167.338L306.276 167.33V167.481H243.77C237.382 187.688 232.177 225.524 227.908 247.807C225.326 261.287 215.977 317.848 211.501 325.826C183.776 328.25 176.849 329.003 179.296 315.999C179.912 312.726 180.543 310.246 181.248 306.628L192.757 247.254C195.403 233.657 207.752 178.963 206.847 167.481H134.98C130.992 179.612 109.398 301.763 106.818 315.835C101.684 343.834 96.1892 368.365 115.977 385.24C135.797 402.144 161.051 397.355 192.001 397.426C221.51 397.493 251.025 397.416 280.536 397.438C311.566 397.462 332.804 399.176 356.223 384.978C373.615 374.434 388.049 358.398 395.355 335.68C408.433 295.019 386.459 268.156 387.586 262.3Z" fill="white"/>
<defs>
<radialGradient id="paint0_radial_1039_25519" cx="0" cy="0" r="1" gradientUnits="userSpaceOnUse" gradientTransform="translate(376.888 142.222) rotate(135.744) scale(387.213 387.213)">
<stop stop-color="#3D97FF"/>
<stop offset="1" stop-color="#006DEA"/>
</radialGradient>
</defs>
</svg>
