<svg width="32" height="30" viewBox="0 0 32 30" fill="none" xmlns="http://www.w3.org/2000/svg">
<path d="M6.27075 5.23467C6.46109 4.52091 6.55626 4.16402 6.82571 3.95701C7.09516 3.75 7.46451 3.75 8.20322 3.75H23.7968C24.5355 3.75 24.9048 3.75 25.1743 3.95701C25.4437 4.16402 25.5389 4.52091 25.7292 5.23467L27.3993 11.4972C27.6413 12.4048 27.7623 12.8585 27.5927 13.1975C27.5355 13.3118 27.4569 13.4141 27.3612 13.4988C27.0774 13.75 26.6078 13.75 25.6685 13.75H25.5183C24.4015 13.75 23.8431 13.75 23.4024 13.5153C23.1566 13.3844 22.9409 13.2036 22.769 12.9846C22.4607 12.5917 22.363 12.0419 22.1675 10.9424C22.1153 10.6484 22.0891 10.5014 22.0404 10.4799C22.0147 10.4685 21.9853 10.4685 21.9596 10.4799C21.9109 10.5014 21.8847 10.6484 21.8325 10.9424L21.7417 11.4527C21.6329 12.065 21.5785 12.3712 21.4588 12.6192C21.2095 13.1358 20.7503 13.5206 20.198 13.6756C19.9329 13.75 19.6219 13.75 19 13.75C18.3781 13.75 18.0671 13.75 17.802 13.6756C17.2497 13.5206 16.7905 13.1358 16.5412 12.6192C16.4215 12.3712 16.3671 12.065 16.2583 11.4527L16.1675 10.9424C16.1153 10.6484 16.0891 10.5014 16.0404 10.4799C16.0147 10.4685 15.9853 10.4685 15.9596 10.4799C15.9109 10.5014 15.8847 10.6484 15.8325 10.9424L15.7417 11.4527C15.6329 12.065 15.5785 12.3712 15.4588 12.6192C15.2095 13.1358 14.7503 13.5206 14.198 13.6756C13.9329 13.75 13.6219 13.75 13 13.75C12.3781 13.75 12.0671 13.75 11.802 13.6756C11.2497 13.5206 10.7905 13.1358 10.5412 12.6192C10.4215 12.3712 10.3671 12.065 10.2583 11.4527L10.1675 10.9424C10.1153 10.6484 10.0891 10.5014 10.0404 10.4799C10.0147 10.4685 9.98532 10.4685 9.95957 10.4799C9.91087 10.5014 9.88473 10.6484 9.83246 10.9424C9.63699 12.0419 9.53925 12.5917 9.23101 12.9846C9.05913 13.2036 8.8434 13.3844 8.59763 13.5153C8.15688 13.75 7.59849 13.75 6.48171 13.75H6.33153C5.39225 13.75 4.9226 13.75 4.63881 13.4988C4.5431 13.4141 4.46452 13.3118 4.40732 13.1975C4.23772 12.8585 4.35873 12.4048 4.60075 11.4972L6.27075 5.23467Z" fill="#CCCCCC"/>
<path d="M21.9981 14.3489C22.2095 14.5395 22.4437 14.7046 22.6963 14.8391L22.8721 14.926C23.2814 15.11 23.6909 15.1814 24.0742 15.2151C24.438 15.247 24.8642 15.248 25.3223 15.2483C25.3316 15.6122 25.332 16.0266 25.332 16.5002V25.5002C25.332 26.4429 25.3319 26.9144 25.0391 27.2073C24.7462 27.4999 24.2746 27.5002 23.332 27.5002H18.665V22.2502C18.665 21.698 18.2173 21.2502 17.665 21.2502H14.332C13.7799 21.2504 13.332 21.6981 13.332 22.2502V27.5002H8.66602C7.7235 27.5002 7.2519 27.4999 6.95899 27.2073C6.66612 26.9144 6.66602 26.4429 6.66602 25.5002V16.5002C6.66602 16.0266 6.66551 15.6122 6.67481 15.2483C7.13321 15.248 7.5598 15.247 7.92383 15.2151C8.36209 15.1766 8.83437 15.088 9.30176 14.8391L9.46094 14.7493C9.65323 14.6336 9.83282 14.4987 9.99903 14.3489C10.395 14.7058 10.8708 14.9731 11.3955 15.1204L11.5898 15.1672C11.9177 15.2343 12.2613 15.2478 12.5986 15.2502H13.3994C13.8042 15.2474 14.2178 15.2283 14.6025 15.1204L14.7813 15.0647C15.2356 14.9105 15.6485 14.6648 15.999 14.3489C16.395 14.7058 16.8708 14.9731 17.3955 15.1204L17.5898 15.1672C17.9177 15.2343 18.2613 15.2478 18.5986 15.2502H19.3994C19.8042 15.2474 20.2178 15.2283 20.6025 15.1204L20.7813 15.0647C21.2354 14.9106 21.6477 14.6646 21.9981 14.3489ZM16.665 27.5002H15.332V23.2502H16.665V27.5002Z" fill="#CCCCCC"/>
</svg>
