<svg width="24" height="24" viewBox="0 0 24 24" fill="none" xmlns="http://www.w3.org/2000/svg">
<path d="M0.49333 15.5005L5.0263 17.384C5.25425 18.4099 5.95309 19.3097 6.98412 19.7426C8.67101 20.4523 10.616 19.6434 11.3177 17.9439C11.5003 17.4997 11.5855 17.0338 11.5732 16.5689L15.7578 13.5574C15.7917 13.5584 15.8265 13.5595 15.8604 13.5595C18.3646 13.5595 20.4 11.5036 20.4 8.97891C20.4 6.45401 18.3646 4.4 15.8604 4.4C13.3572 4.4 11.3208 6.45401 11.3208 8.97891C11.3208 8.99916 11.3208 9.0194 11.3218 9.03841L8.39719 13.3167C7.92343 13.295 7.44803 13.3787 6.99725 13.5657C6.79854 13.6473 6.61234 13.7475 6.43763 13.8632L0.0156047 11.2009C0.0156077 11.2009 0.0150794 11.2097 0.0142156 11.2266C0.00949487 11.2187 0.00475631 11.2107 0 11.2027C0.411429 4.94719 5.62069 0 11.9871 0C18.6215 0 24 5.3726 24 12C24 18.6273 18.6215 24 11.9871 24C6.57147 24 1.99283 20.4206 0.49333 15.5005Z" fill="#E5EBF4"/>
<path d="M10.6192 17.6485C10.0761 18.9616 8.57769 19.5845 7.27521 19.038C6.67434 18.7859 6.22069 18.3241 5.95898 17.7735L7.43679 18.3902C8.39734 18.7932 9.49936 18.3345 9.89864 17.3675C10.2991 16.3995 9.84478 15.2878 8.88474 14.8849L7.35708 14.2475C7.94656 14.0223 8.61668 14.014 9.24278 14.2764C9.87402 14.5409 10.3638 15.0389 10.6233 15.6753C10.8829 16.3117 10.8819 17.0142 10.6192 17.6485Z" fill="#E5EBF4"/>
<path fill-rule="evenodd" clip-rule="evenodd" d="M12.8359 8.97889C12.8359 10.6616 14.1932 12.0305 15.8603 12.0305C17.5284 12.0305 18.8857 10.6616 18.8857 8.97889C18.8857 7.29752 17.5284 5.92825 15.8603 5.92825C14.1932 5.92825 12.8359 7.29752 12.8359 8.97889ZM15.8654 11.266C14.6118 11.266 13.5941 10.2402 13.5941 8.97425C13.5941 7.70839 14.6118 6.68169 15.8654 6.68169C17.1201 6.68169 18.1378 7.70839 18.1378 8.97425C18.1378 10.2402 17.1201 11.266 15.8654 11.266Z" fill="#E5EBF4"/>
</svg>
