<svg width="24" height="24" viewBox="0 0 24 24" fill="none" xmlns="http://www.w3.org/2000/svg">
<path fill-rule="evenodd" clip-rule="evenodd" d="M0 12C0 5.37258 5.37258 0 12 0C18.6274 0 24 5.37258 24 12C24 18.6274 18.6274 24 12 24C5.37258 24 0 18.6274 0 12ZM10.4405 19.3185C12.2857 19.7901 14.8733 19.2863 16.4558 18.1473C17.7679 17.2029 17.812 16.8699 16.8229 15.3767C16.2133 14.4564 13.4885 11.6341 12.6369 11.0409L12.0948 10.6633L10.886 11.7062C8.73738 13.5601 6.77717 16.0693 6.77717 16.9657C6.77717 17.6354 8.70854 18.8758 10.4405 19.3185ZM6.35903 16.5001C6.50337 16.9548 6.40205 16.8878 5.95685 16.2339C4.82752 14.5753 4.46469 11.8441 5.13814 10.071C5.55525 8.97278 6.53844 7.47731 7.07407 7.12635C7.46098 6.87284 7.53511 6.87551 8.06735 7.16214C8.38369 7.33251 9.04401 7.8315 9.53473 8.27101L10.4269 9.07013L9.47148 10.2534C7.55161 12.6311 6.07295 15.5987 6.35903 16.5001ZM17.9052 16.1824L17.9144 16.8436L18.4098 16.1034C19.1751 14.9599 19.4513 13.7883 19.3835 11.9736C19.3329 10.6206 19.2494 10.2506 18.7795 9.29825C18.4796 8.69042 17.9214 7.88821 17.539 7.51557L16.8439 6.83805L16.2163 7.17414C15.8712 7.35899 15.2055 7.86197 14.737 8.29187L13.8852 9.07352L14.8353 10.2551C16.8006 12.6993 17.8861 14.7952 17.9052 16.1824ZM12.1632 7.55026C11.9687 7.55984 11.7676 7.43525 11.3043 7.16096C10.9304 6.93961 10.1451 6.62874 9.55921 6.47014C8.97329 6.31154 8.52839 6.12598 8.57053 6.05778C8.61268 5.98958 9.1894 5.75943 9.85212 5.54634C11.5867 4.98858 13.6398 5.11147 15.1694 5.86461C15.7648 6.15773 16.0913 6.35855 15.895 6.31085C15.4579 6.20464 13.5533 6.78166 12.7908 7.25132C12.4853 7.43949 12.3265 7.54221 12.1632 7.55026Z" fill="#EBEFF4"/>
</svg>
