<svg width="387" height="379" viewBox="0 0 387 379" fill="none" xmlns="http://www.w3.org/2000/svg">
<path d="M0 20C0 8.9543 8.95431 0 20 0L387 0L387 379L20 379C8.95432 379 0 370.046 0 359L0 20Z" fill="url(#paint0_linear_1759_25234)"/>
<path d="M0 20C0 8.9543 8.95431 0 20 0L387 0L387 379L20 379C8.95432 379 0 370.046 0 359L0 20Z" fill="url(#paint1_linear_1759_25234)"/>
<path d="M0 20C0 8.9543 8.95431 0 20 0L387 0L387 379L20 379C8.95432 379 0 370.046 0 359L0 20Z" fill="url(#paint2_linear_1759_25234)" fill-opacity="0.2"/>
<defs>
<linearGradient id="paint0_linear_1759_25234" x1="-6.99704e-06" y1="162.144" x2="387" y2="162.144" gradientUnits="userSpaceOnUse">
<stop offset="0.05" stop-color="#23262F"/>
<stop offset="1" stop-color="#23262F" stop-opacity="0"/>
</linearGradient>
<linearGradient id="paint1_linear_1759_25234" x1="-6.99704e-06" y1="162.144" x2="387" y2="162.144" gradientUnits="userSpaceOnUse">
<stop offset="0.732384" stop-color="#23262F"/>
<stop offset="1" stop-color="#23262F" stop-opacity="0"/>
</linearGradient>
<linearGradient id="paint2_linear_1759_25234" x1="271.355" y1="9.44877" x2="-42.1149" y2="331.188" gradientUnits="userSpaceOnUse">
<stop stop-opacity="0"/>
<stop offset="1" stop-color="#783FF2"/>
</linearGradient>
</defs>
</svg>
