<svg width="132" height="45" viewBox="0 0 132 45" fill="none" xmlns="http://www.w3.org/2000/svg">
<g clip-path="url(#clip0_1903_28966)">
<rect x="0.5" y="0.5" width="131" height="44" rx="6.5" fill="white" stroke="#99A2AD"/>
<rect x="9" y="8" width="30" height="30" rx="6" fill="#C4D600"/>
<path d="M17.75 26C17.75 25.5858 17.4142 25.25 17 25.25C16.5858 25.25 16.25 25.5858 16.25 26H17H17.75ZM17 27H16.25H17ZM31.75 26C31.75 25.5858 31.4142 25.25 31 25.25C30.5858 25.25 30.25 25.5858 30.25 26H31H31.75ZM23.4143 26.5315C23.1556 26.8549 23.208 27.3269 23.5315 27.5857C23.8549 27.8444 24.3269 27.792 24.5857 27.4685L24 27L23.4143 26.5315ZM28.5857 22.4685C28.8444 22.1451 28.792 21.6731 28.4685 21.4143C28.1451 21.1556 27.6731 21.208 27.4143 21.5315L28 22L28.5857 22.4685ZM23.4143 27.4685C23.6731 27.792 24.1451 27.8444 24.4685 27.5857C24.792 27.3269 24.8444 26.8549 24.5857 26.5315L24 27L23.4143 27.4685ZM20.5857 21.5315C20.3269 21.208 19.8549 21.1556 19.5315 21.4143C19.208 21.6731 19.1556 22.1451 19.4143 22.4685L20 22L20.5857 21.5315ZM23.25 27C23.25 27.4142 23.5858 27.75 24 27.75C24.4142 27.75 24.75 27.4142 24.75 27H24H23.25ZM24.75 16C24.75 15.5858 24.4142 15.25 24 15.25C23.5858 15.25 23.25 15.5858 23.25 16H24H24.75ZM17 26H16.25V27H17H17.75V26H17ZM17 27H16.25C16.25 29.0711 17.9289 30.75 20 30.75V30V29.25C18.7574 29.25 17.75 28.2426 17.75 27H17ZM20 30V30.75H28V30V29.25H20V30ZM28 30V30.75C30.0711 30.75 31.75 29.0711 31.75 27H31H30.25C30.25 28.2426 29.2426 29.25 28 29.25V30ZM31 27H31.75V26H31H30.25V27H31ZM24 27L24.5857 27.4685L28.5857 22.4685L28 22L27.4143 21.5315L23.4143 26.5315L24 27ZM24 27L24.5857 26.5315L20.5857 21.5315L20 22L19.4143 22.4685L23.4143 27.4685L24 27ZM24 27H24.75V16H24H23.25V27H24Z" fill="white"/>
<path d="M50.4716 14.0739H49.5852C49.5511 13.8845 49.4877 13.7178 49.3949 13.5739C49.3021 13.4299 49.1884 13.3078 49.054 13.2074C48.9195 13.107 48.7689 13.0312 48.6023 12.9801C48.4375 12.929 48.2623 12.9034 48.0767 12.9034C47.7415 12.9034 47.4413 12.9877 47.1761 13.1562C46.9129 13.3248 46.7045 13.572 46.5511 13.8977C46.3996 14.2235 46.3239 14.6212 46.3239 15.0909C46.3239 15.5644 46.3996 15.964 46.5511 16.2898C46.7045 16.6155 46.9138 16.8617 47.179 17.0284C47.4441 17.1951 47.7424 17.2784 48.0739 17.2784C48.2576 17.2784 48.4318 17.2538 48.5966 17.2045C48.7633 17.1534 48.9138 17.0786 49.0483 16.9801C49.1828 16.8816 49.2964 16.7614 49.3892 16.6193C49.4839 16.4754 49.5492 16.3106 49.5852 16.125L50.4716 16.1278C50.4242 16.4138 50.3324 16.6771 50.196 16.9176C50.0616 17.1562 49.8883 17.3627 49.6761 17.5369C49.4659 17.7093 49.2254 17.8428 48.9545 17.9375C48.6837 18.0322 48.3883 18.0795 48.0682 18.0795C47.5644 18.0795 47.1155 17.9602 46.7216 17.7216C46.3277 17.4811 46.017 17.1373 45.7898 16.6903C45.5644 16.2434 45.4517 15.7102 45.4517 15.0909C45.4517 14.4697 45.5653 13.9366 45.7926 13.4915C46.0199 13.0445 46.3305 12.7017 46.7244 12.4631C47.1184 12.2225 47.5663 12.1023 48.0682 12.1023C48.3769 12.1023 48.6648 12.1468 48.9318 12.2358C49.2008 12.3229 49.4422 12.4517 49.6562 12.6222C49.8703 12.7907 50.0473 12.9972 50.1875 13.2415C50.3277 13.4839 50.4223 13.7614 50.4716 14.0739ZM51.4538 18V13.6364H52.3033V15.4659H52.7124L54.1527 13.6364H55.2038L53.5135 15.7585L55.2237 18H54.1697L52.8544 16.2557H52.3033V18H51.4538ZM57.1534 18.0966C56.8769 18.0966 56.6269 18.0455 56.4034 17.9432C56.1799 17.839 56.0028 17.6884 55.8722 17.4915C55.7434 17.2945 55.679 17.053 55.679 16.767C55.679 16.5208 55.7263 16.3182 55.821 16.1591C55.9157 16 56.0436 15.8741 56.2045 15.7812C56.3655 15.6884 56.5455 15.6184 56.7443 15.571C56.9432 15.5237 57.1458 15.4877 57.3523 15.4631C57.6136 15.4328 57.8258 15.4081 57.9886 15.3892C58.1515 15.3684 58.2699 15.3352 58.3438 15.2898C58.4176 15.2443 58.4545 15.1705 58.4545 15.0682V15.0483C58.4545 14.8002 58.3845 14.608 58.2443 14.4716C58.1061 14.3352 57.8996 14.267 57.625 14.267C57.339 14.267 57.1136 14.3305 56.9489 14.4574C56.786 14.5824 56.6733 14.7216 56.6108 14.875L55.8125 14.6932C55.9072 14.428 56.0455 14.214 56.2273 14.0511C56.411 13.8864 56.6222 13.767 56.8608 13.6932C57.0994 13.6174 57.3504 13.5795 57.6136 13.5795C57.7879 13.5795 57.9725 13.6004 58.1676 13.642C58.3646 13.6818 58.5483 13.7557 58.7188 13.8636C58.8911 13.9716 59.0322 14.1259 59.142 14.3267C59.2519 14.5256 59.3068 14.7841 59.3068 15.1023V18H58.4773V17.4034H58.4432C58.3883 17.5133 58.3059 17.6212 58.196 17.7273C58.0862 17.8333 57.9451 17.9214 57.7727 17.9915C57.6004 18.0616 57.3939 18.0966 57.1534 18.0966ZM57.3381 17.4148C57.5729 17.4148 57.7737 17.3684 57.9403 17.2756C58.1089 17.1828 58.2367 17.0616 58.3239 16.9119C58.4129 16.7604 58.4574 16.5985 58.4574 16.4261V15.8636C58.4271 15.8939 58.3684 15.9223 58.2812 15.9489C58.196 15.9735 58.0985 15.9953 57.9886 16.0142C57.8788 16.0312 57.7718 16.0473 57.6676 16.0625C57.5634 16.0758 57.4763 16.0871 57.4062 16.0966C57.2415 16.1174 57.0909 16.1525 56.9545 16.2017C56.8201 16.2509 56.7121 16.322 56.6307 16.4148C56.5511 16.5057 56.5114 16.6269 56.5114 16.7784C56.5114 16.9886 56.589 17.1477 56.7443 17.2557C56.8996 17.3617 57.0975 17.4148 57.3381 17.4148ZM63.9411 13.6364V18H63.1115V13.6364H63.9411ZM63.5803 15.6619V16.3949C63.4496 16.4479 63.3113 16.4953 63.1655 16.5369C63.0196 16.5767 62.8662 16.608 62.7053 16.6307C62.5443 16.6534 62.3767 16.6648 62.2024 16.6648C61.6626 16.6648 61.2337 16.5331 60.9155 16.2699C60.5973 16.0047 60.4382 15.5994 60.4382 15.054V13.6278H61.2649V15.054C61.2649 15.2604 61.3028 15.428 61.3786 15.5568C61.4543 15.6856 61.5623 15.7803 61.7024 15.8409C61.8426 15.9015 62.0092 15.9318 62.2024 15.9318C62.4581 15.9318 62.6939 15.9081 62.9098 15.8608C63.1276 15.8116 63.3511 15.7453 63.5803 15.6619ZM66.3409 18.0966C66.0644 18.0966 65.8144 18.0455 65.5909 17.9432C65.3674 17.839 65.1903 17.6884 65.0597 17.4915C64.9309 17.2945 64.8665 17.053 64.8665 16.767C64.8665 16.5208 64.9138 16.3182 65.0085 16.1591C65.1032 16 65.2311 15.8741 65.392 15.7812C65.553 15.6884 65.733 15.6184 65.9318 15.571C66.1307 15.5237 66.3333 15.4877 66.5398 15.4631C66.8011 15.4328 67.0133 15.4081 67.1761 15.3892C67.339 15.3684 67.4574 15.3352 67.5312 15.2898C67.6051 15.2443 67.642 15.1705 67.642 15.0682V15.0483C67.642 14.8002 67.572 14.608 67.4318 14.4716C67.2936 14.3352 67.0871 14.267 66.8125 14.267C66.5265 14.267 66.3011 14.3305 66.1364 14.4574C65.9735 14.5824 65.8608 14.7216 65.7983 14.875L65 14.6932C65.0947 14.428 65.233 14.214 65.4148 14.0511C65.5985 13.8864 65.8097 13.767 66.0483 13.6932C66.2869 13.6174 66.5379 13.5795 66.8011 13.5795C66.9754 13.5795 67.16 13.6004 67.3551 13.642C67.5521 13.6818 67.7358 13.7557 67.9062 13.8636C68.0786 13.9716 68.2197 14.1259 68.3295 14.3267C68.4394 14.5256 68.4943 14.7841 68.4943 15.1023V18H67.6648V17.4034H67.6307C67.5758 17.5133 67.4934 17.6212 67.3835 17.7273C67.2737 17.8333 67.1326 17.9214 66.9602 17.9915C66.7879 18.0616 66.5814 18.0966 66.3409 18.0966ZM66.5256 17.4148C66.7604 17.4148 66.9612 17.3684 67.1278 17.2756C67.2964 17.1828 67.4242 17.0616 67.5114 16.9119C67.6004 16.7604 67.6449 16.5985 67.6449 16.4261V15.8636C67.6146 15.8939 67.5559 15.9223 67.4688 15.9489C67.3835 15.9735 67.286 15.9953 67.1761 16.0142C67.0663 16.0312 66.9593 16.0473 66.8551 16.0625C66.7509 16.0758 66.6638 16.0871 66.5938 16.0966C66.429 16.1174 66.2784 16.1525 66.142 16.2017C66.0076 16.2509 65.8996 16.322 65.8182 16.4148C65.7386 16.5057 65.6989 16.6269 65.6989 16.7784C65.6989 16.9886 65.7765 17.1477 65.9318 17.2557C66.0871 17.3617 66.285 17.4148 66.5256 17.4148ZM69.0845 14.3693V13.6364H72.7663V14.3693H71.343V18H70.5135V14.3693H69.0845ZM74.304 15.1364H75.571C76.1051 15.1364 76.5161 15.2689 76.804 15.5341C77.0919 15.7992 77.2358 16.1411 77.2358 16.5597C77.2358 16.8324 77.1714 17.0777 77.0426 17.2955C76.9138 17.5133 76.7254 17.6856 76.4773 17.8125C76.2292 17.9375 75.9271 18 75.571 18H73.6648V13.6364H74.4972V17.267H75.571C75.8153 17.267 76.0161 17.2036 76.1733 17.0767C76.3305 16.9479 76.4091 16.7841 76.4091 16.5852C76.4091 16.375 76.3305 16.2036 76.1733 16.071C76.0161 15.9366 75.8153 15.8693 75.571 15.8693H74.304V15.1364ZM80.8651 18H79.9332L82.027 12.1818H83.0412L85.1349 18H84.2031L82.5582 13.2386H82.5128L80.8651 18ZM81.0213 15.7216H84.044V16.4602H81.0213V15.7216ZM85.9751 18V12.1818H88.049C88.5017 12.1818 88.8767 12.2642 89.174 12.429C89.4714 12.5937 89.6939 12.8191 89.8416 13.1051C89.9893 13.3892 90.0632 13.7093 90.0632 14.0653C90.0632 14.4233 89.9884 14.7453 89.8388 15.0312C89.6911 15.3153 89.4676 15.5407 89.1683 15.7074C88.871 15.8722 88.4969 15.9545 88.0462 15.9545H86.62V15.2102H87.9666C88.2526 15.2102 88.4846 15.161 88.6626 15.0625C88.8407 14.9621 88.9714 14.8258 89.0547 14.6534C89.138 14.4811 89.1797 14.285 89.1797 14.0653C89.1797 13.8456 89.138 13.6506 89.0547 13.4801C88.9714 13.3097 88.8397 13.1761 88.6598 13.0795C88.4818 12.983 88.2469 12.9347 87.9553 12.9347H86.853V18H85.9751ZM91.0923 18V12.1818H91.9702V14.9602H92.0412L94.4815 12.1818H95.5866L93.2401 14.8011L95.5952 18H94.5384L92.6577 15.4006L91.9702 16.1903V18H91.0923ZM98.2124 14.7216V15.4602H95.6328V14.7216H98.2124ZM101.222 19.4858V12.1818H102.072V19.4858H101.222ZM101.222 18.0881C100.914 18.0881 100.632 18.035 100.379 17.929C100.125 17.821 99.906 17.6676 99.7223 17.4688C99.5386 17.2699 99.3965 17.0322 99.2962 16.7557C99.1977 16.4792 99.1484 16.1733 99.1484 15.8381C99.1484 15.4991 99.1977 15.1913 99.2962 14.9148C99.3965 14.6383 99.5386 14.4006 99.7223 14.2017C99.906 14.0028 100.125 13.8494 100.379 13.7415C100.632 13.6335 100.914 13.5795 101.222 13.5795H101.433V18.0881H101.222ZM101.222 17.3722H101.342V14.2955H101.222C101.018 14.2955 100.84 14.3371 100.688 14.4205C100.537 14.5019 100.411 14.6146 100.31 14.7585C100.21 14.9006 100.134 15.0644 100.083 15.25C100.034 15.4356 100.009 15.6316 100.009 15.8381C100.009 16.1146 100.054 16.3693 100.143 16.6023C100.232 16.8333 100.366 17.0199 100.546 17.1619C100.726 17.3021 100.951 17.3722 101.222 17.3722ZM102.072 18.0881H101.859V13.5795H102.072C102.38 13.5795 102.662 13.6335 102.915 13.7415C103.169 13.8494 103.387 14.0028 103.569 14.2017C103.753 14.4006 103.894 14.6383 103.992 14.9148C104.093 15.1913 104.143 15.4991 104.143 15.8381C104.143 16.1733 104.093 16.4792 103.992 16.7557C103.894 17.0322 103.753 17.2699 103.569 17.4688C103.387 17.6676 103.169 17.821 102.915 17.929C102.662 18.035 102.38 18.0881 102.072 18.0881ZM102.072 17.3722C102.276 17.3722 102.454 17.3324 102.606 17.2528C102.757 17.1714 102.883 17.0597 102.984 16.9176C103.084 16.7737 103.159 16.6098 103.208 16.4261C103.257 16.2405 103.282 16.0445 103.282 15.8381C103.282 15.5634 103.237 15.3097 103.148 15.0767C103.061 14.8419 102.928 14.6534 102.748 14.5114C102.568 14.3674 102.343 14.2955 102.072 14.2955H101.95V17.3722H102.072ZM106.357 18.0966C106.08 18.0966 105.83 18.0455 105.607 17.9432C105.383 17.839 105.206 17.6884 105.075 17.4915C104.946 17.2945 104.882 17.053 104.882 16.767C104.882 16.5208 104.929 16.3182 105.024 16.1591C105.119 16 105.247 15.8741 105.408 15.7812C105.569 15.6884 105.749 15.6184 105.947 15.571C106.146 15.5237 106.349 15.4877 106.555 15.4631C106.817 15.4328 107.029 15.4081 107.192 15.3892C107.355 15.3684 107.473 15.3352 107.547 15.2898C107.621 15.2443 107.658 15.1705 107.658 15.0682V15.0483C107.658 14.8002 107.588 14.608 107.447 14.4716C107.309 14.3352 107.103 14.267 106.828 14.267C106.542 14.267 106.317 14.3305 106.152 14.4574C105.989 14.5824 105.876 14.7216 105.814 14.875L105.016 14.6932C105.11 14.428 105.249 14.214 105.43 14.0511C105.614 13.8864 105.825 13.767 106.064 13.6932C106.303 13.6174 106.554 13.5795 106.817 13.5795C106.991 13.5795 107.176 13.6004 107.371 13.642C107.568 13.6818 107.751 13.7557 107.922 13.8636C108.094 13.9716 108.235 14.1259 108.345 14.3267C108.455 14.5256 108.51 14.7841 108.51 15.1023V18H107.68V17.4034H107.646C107.591 17.5133 107.509 17.6212 107.399 17.7273C107.289 17.8333 107.148 17.9214 106.976 17.9915C106.804 18.0616 106.597 18.0966 106.357 18.0966ZM106.541 17.4148C106.776 17.4148 106.977 17.3684 107.143 17.2756C107.312 17.1828 107.44 17.0616 107.527 16.9119C107.616 16.7604 107.661 16.5985 107.661 16.4261V15.8636C107.63 15.8939 107.571 15.9223 107.484 15.9489C107.399 15.9735 107.302 15.9953 107.192 16.0142C107.082 16.0312 106.975 16.0473 106.871 16.0625C106.767 16.0758 106.679 16.0871 106.609 16.0966C106.445 16.1174 106.294 16.1525 106.158 16.2017C106.023 16.2509 105.915 16.322 105.834 16.4148C105.754 16.5057 105.714 16.6269 105.714 16.7784C105.714 16.9886 105.792 17.1477 105.947 17.2557C106.103 17.3617 106.301 17.4148 106.541 17.4148ZM110.474 16.8097L112.397 13.6364H113.312V18H112.479V14.8239L110.565 18H109.641V13.6364H110.474V16.8097ZM112.033 12.1591H112.732C112.732 12.4792 112.619 12.7396 112.391 12.9403C112.166 13.1392 111.861 13.2386 111.477 13.2386C111.094 13.2386 110.79 13.1392 110.565 12.9403C110.339 12.7396 110.227 12.4792 110.227 12.1591H110.923C110.923 12.3011 110.964 12.4271 111.048 12.5369C111.131 12.6449 111.274 12.6989 111.477 12.6989C111.675 12.6989 111.817 12.6449 111.903 12.5369C111.99 12.429 112.033 12.303 112.033 12.1591ZM114.11 18L114.107 17.2642H114.263C114.385 17.2642 114.486 17.2386 114.567 17.1875C114.651 17.1345 114.719 17.0455 114.772 16.9205C114.825 16.7955 114.866 16.6231 114.894 16.4034C114.923 16.1818 114.943 15.9034 114.957 15.5682L115.033 13.6364H118.079V18H117.246V14.3693H115.82L115.752 15.8523C115.735 16.2121 115.698 16.5265 115.641 16.7955C115.586 17.0644 115.506 17.2888 115.4 17.4688C115.294 17.6468 115.157 17.7803 114.991 17.8693C114.824 17.9564 114.621 18 114.383 18H114.11Z" fill="#0A0A0A"/>
<path d="M51.1747 27.5405V28.8281H47.0384V27.5405H51.1747ZM47.456 24.3636V32H45.9993V24.3636H47.456ZM52.2138 24.3636V32H50.7621V24.3636H52.2138ZM56.4247 32.169C55.9408 32.169 55.5033 32.0795 55.1122 31.9006C54.7211 31.7183 54.4112 31.4548 54.1825 31.1101C53.9571 30.7654 53.8445 30.3428 53.8445 29.8423C53.8445 29.4115 53.9273 29.0568 54.093 28.7784C54.2588 28.5 54.4825 28.2796 54.7642 28.1172C55.0459 27.9548 55.3608 27.8321 55.7088 27.7493C56.0568 27.6664 56.4115 27.6035 56.7727 27.5604C57.2301 27.5073 57.6013 27.4643 57.8864 27.4311C58.1714 27.3946 58.3786 27.3366 58.5078 27.2571C58.6371 27.1776 58.7017 27.0483 58.7017 26.8693V26.8345C58.7017 26.4003 58.5791 26.0639 58.3338 25.8253C58.0919 25.5866 57.7306 25.4673 57.25 25.4673C56.7495 25.4673 56.3551 25.5784 56.0668 25.8004C55.7817 26.0192 55.5845 26.2628 55.4751 26.5312L54.0781 26.2131C54.2438 25.7491 54.4858 25.3745 54.804 25.0895C55.1255 24.8011 55.495 24.5923 55.9126 24.4631C56.3303 24.3305 56.7694 24.2642 57.2301 24.2642C57.535 24.2642 57.8582 24.3007 58.1996 24.3736C58.5443 24.4432 58.8658 24.5724 59.1641 24.7614C59.4657 24.9503 59.7126 25.2204 59.9048 25.5717C60.0971 25.9197 60.1932 26.3722 60.1932 26.929V32H58.7415V30.956H58.6818C58.5857 31.1482 58.4415 31.3371 58.2493 31.5227C58.0571 31.7083 57.8101 31.8625 57.5085 31.9851C57.2069 32.1077 56.8456 32.169 56.4247 32.169ZM56.7479 30.9759C57.1589 30.9759 57.5102 30.8946 57.8018 30.7322C58.0968 30.5698 58.3205 30.3577 58.473 30.0959C58.6288 29.8307 58.7067 29.5473 58.7067 29.2457V28.2614C58.6536 28.3144 58.5509 28.3641 58.3984 28.4105C58.2493 28.4536 58.0786 28.4917 57.8864 28.5249C57.6941 28.5547 57.5069 28.5829 57.3246 28.6094C57.1423 28.6326 56.9898 28.6525 56.8672 28.669C56.5788 28.7055 56.3153 28.7668 56.0767 28.853C55.8414 28.9392 55.6525 29.0634 55.5099 29.2259C55.3707 29.3849 55.3011 29.5971 55.3011 29.8622C55.3011 30.2301 55.437 30.5085 55.7088 30.6974C55.9806 30.883 56.3269 30.9759 56.7479 30.9759ZM66.8576 32H65.2269L68.891 21.8182H70.6658L74.3299 32H72.6992L69.8207 23.6676H69.7411L66.8576 32ZM67.131 28.0128H72.4208V29.3054H67.131V28.0128ZM77.1674 27.4659V32H75.6809V24.3636H77.1078V25.6065H77.2022C77.3779 25.2022 77.653 24.8774 78.0275 24.6321C78.4054 24.3868 78.881 24.2642 79.4544 24.2642C79.9747 24.2642 80.4305 24.3736 80.8216 24.5923C81.2127 24.8078 81.5159 25.1293 81.7314 25.5568C81.9468 25.9844 82.0545 26.513 82.0545 27.1428V32H80.568V27.3217C80.568 26.7682 80.4238 26.3357 80.1355 26.0241C79.8471 25.7093 79.4511 25.5518 78.9473 25.5518C78.6026 25.5518 78.296 25.6264 78.0275 25.7756C77.7624 25.9247 77.5519 26.1435 77.3961 26.4318C77.2437 26.7169 77.1674 27.0616 77.1674 27.4659ZM86.9068 32.1491C86.2903 32.1491 85.7401 31.9917 85.2562 31.6768C84.7756 31.3587 84.3978 30.9062 84.1227 30.3196C83.8509 29.7296 83.715 29.022 83.715 28.1967C83.715 27.3714 83.8526 26.6655 84.1277 26.0788C84.4061 25.4922 84.7872 25.0431 85.2711 24.7315C85.755 24.42 86.3036 24.2642 86.9167 24.2642C87.3907 24.2642 87.7718 24.3438 88.0602 24.5028C88.3519 24.6586 88.5772 24.8409 88.7363 25.0497C88.8987 25.2585 89.0247 25.4425 89.1142 25.6016H89.2037V21.8182H90.6902V32H89.2385V30.8118H89.1142C89.0247 30.9742 88.8954 31.1598 88.7264 31.3686C88.5607 31.5774 88.332 31.7597 88.0403 31.9155C87.7486 32.0713 87.3708 32.1491 86.9068 32.1491ZM87.2349 30.8814C87.6625 30.8814 88.0237 30.7687 88.3187 30.5433C88.617 30.3146 88.8424 29.9981 88.9949 29.5938C89.1506 29.1894 89.2285 28.7187 89.2285 28.1818C89.2285 27.6515 89.1523 27.1875 88.9998 26.7898C88.8474 26.392 88.6236 26.0821 88.3287 25.8601C88.0337 25.638 87.6691 25.527 87.2349 25.527C86.7875 25.527 86.4146 25.643 86.1163 25.875C85.818 26.107 85.5926 26.4235 85.4402 26.8246C85.291 27.2256 85.2164 27.678 85.2164 28.1818C85.2164 28.6922 85.2927 29.1513 85.4451 29.5589C85.5976 29.9666 85.823 30.2898 86.1213 30.5284C86.4229 30.7637 86.7941 30.8814 87.2349 30.8814ZM92.8118 32V24.3636H94.2486V25.5767H94.3281C94.4673 25.1657 94.7126 24.8426 95.0639 24.6072C95.4186 24.3686 95.8196 24.2493 96.267 24.2493C96.3598 24.2493 96.4692 24.2526 96.5952 24.2592C96.7244 24.2659 96.8255 24.2741 96.8984 24.2841V25.706C96.8388 25.6894 96.7327 25.6712 96.5803 25.6513C96.4278 25.6281 96.2753 25.6165 96.1229 25.6165C95.7715 25.6165 95.4583 25.6911 95.1832 25.8402C94.9115 25.986 94.696 26.1899 94.5369 26.4517C94.3778 26.7102 94.2983 27.0052 94.2983 27.3366V32H92.8118ZM101.128 32.1541C100.412 32.1541 99.7873 31.9901 99.2537 31.6619C98.7201 31.3338 98.3058 30.8748 98.0108 30.2848C97.7158 29.6948 97.5684 29.0054 97.5684 28.2166C97.5684 27.4245 97.7158 26.7318 98.0108 26.1385C98.3058 25.5452 98.7201 25.0845 99.2537 24.7564C99.7873 24.4283 100.412 24.2642 101.128 24.2642C101.844 24.2642 102.469 24.4283 103.002 24.7564C103.536 25.0845 103.95 25.5452 104.245 26.1385C104.54 26.7318 104.688 27.4245 104.688 28.2166C104.688 29.0054 104.54 29.6948 104.245 30.2848C103.95 30.8748 103.536 31.3338 103.002 31.6619C102.469 31.9901 101.844 32.1541 101.128 32.1541ZM101.133 30.9062C101.597 30.9062 101.981 30.7836 102.286 30.5384C102.591 30.2931 102.817 29.9666 102.963 29.5589C103.112 29.1513 103.186 28.7022 103.186 28.2116C103.186 27.7244 103.112 27.277 102.963 26.8693C102.817 26.4583 102.591 26.1286 102.286 25.88C101.981 25.6314 101.597 25.5071 101.133 25.5071C100.666 25.5071 100.278 25.6314 99.9696 25.88C99.6647 26.1286 99.4377 26.4583 99.2885 26.8693C99.1427 27.277 99.0698 27.7244 99.0698 28.2116C99.0698 28.7022 99.1427 29.1513 99.2885 29.5589C99.4377 29.9666 99.6647 30.2931 99.9696 30.5384C100.278 30.7836 100.666 30.9062 101.133 30.9062ZM106.347 32V24.3636H107.833V32H106.347ZM107.098 23.1854C106.839 23.1854 106.617 23.0992 106.431 22.9268C106.249 22.7512 106.158 22.5424 106.158 22.3004C106.158 22.0552 106.249 21.8464 106.431 21.674C106.617 21.4983 106.839 21.4105 107.098 21.4105C107.356 21.4105 107.577 21.4983 107.759 21.674C107.944 21.8464 108.037 22.0552 108.037 22.3004C108.037 22.5424 107.944 22.7512 107.759 22.9268C107.577 23.0992 107.356 23.1854 107.098 23.1854ZM112.692 32.1491C112.075 32.1491 111.525 31.9917 111.041 31.6768C110.561 31.3587 110.183 30.9062 109.908 30.3196C109.636 29.7296 109.5 29.022 109.5 28.1967C109.5 27.3714 109.638 26.6655 109.913 26.0788C110.191 25.4922 110.572 25.0431 111.056 24.7315C111.54 24.42 112.089 24.2642 112.702 24.2642C113.176 24.2642 113.557 24.3438 113.845 24.5028C114.137 24.6586 114.362 24.8409 114.521 25.0497C114.684 25.2585 114.81 25.4425 114.899 25.6016H114.989V21.8182H116.475V32H115.024V30.8118H114.899C114.81 30.9742 114.681 31.1598 114.512 31.3686C114.346 31.5774 114.117 31.7597 113.825 31.9155C113.534 32.0713 113.156 32.1491 112.692 32.1491ZM113.02 30.8814C113.448 30.8814 113.809 30.7687 114.104 30.5433C114.402 30.3146 114.628 29.9981 114.78 29.5938C114.936 29.1894 115.014 28.7187 115.014 28.1818C115.014 27.6515 114.937 27.1875 114.785 26.7898C114.633 26.392 114.409 26.0821 114.114 25.8601C113.819 25.638 113.454 25.527 113.02 25.527C112.573 25.527 112.2 25.643 111.901 25.875C111.603 26.107 111.378 26.4235 111.225 26.8246C111.076 27.2256 111.002 27.678 111.002 28.1818C111.002 28.6922 111.078 29.1513 111.23 29.5589C111.383 29.9666 111.608 30.2898 111.906 30.5284C112.208 30.7637 112.579 30.8814 113.02 30.8814Z" fill="#0A0A0A"/>
</g>
<defs>
<clipPath id="clip0_1903_28966">
<rect width="132" height="45" fill="white"/>
</clipPath>
</defs>
</svg>
