<svg width="31" height="30" viewBox="0 0 31 30" fill="none" xmlns="http://www.w3.org/2000/svg">
<path fill-rule="evenodd" clip-rule="evenodd" d="M15.1971 29.9736C23.5983 29.9736 30.4089 23.2596 30.4089 14.9758C30.4089 6.69205 23.5983 -0.0246105 15.1971 -0.0246105C6.79588 -0.0246105 -0.0146484 6.69199 -0.0146484 14.9758C-0.0146484 23.2596 6.79642 29.9736 15.1971 29.9736ZM23.6383 14.7144C23.899 14.786 24.1293 14.9389 24.2947 15.1501C24.4602 15.3614 24.5519 15.6197 24.5563 15.8866C24.5606 16.1535 24.4774 16.4146 24.3189 16.631C24.1605 16.8474 23.9353 17.0075 23.6771 17.0874H16.8477C16.7956 17.0874 16.7442 17.1003 16.6984 17.1249C16.6527 17.1495 16.6138 17.185 16.5856 17.2282C16.5573 17.2714 16.5405 17.3209 16.5367 17.3722C16.5328 17.4235 16.5421 17.4749 16.5636 17.5218C17.1856 18.8794 17.5288 20.3199 17.5555 21.6878C17.4835 22.5901 16.9662 23.2981 16.0174 23.7919C15.9134 23.8462 15.7968 23.8731 15.6791 23.8698C15.5614 23.8666 15.4466 23.8334 15.3457 23.7735C15.2449 23.7135 15.1615 23.6289 15.1036 23.5278C15.0458 23.4266 15.0154 23.3125 15.0155 23.1964V20.8269C15.0153 20.7806 15.0047 20.7349 14.9845 20.6931L12.965 16.567C12.9325 16.5002 12.8765 16.4475 12.8074 16.4184L12.1497 16.1388V7.19174L14.2265 6.07594H21.5874C21.8274 6.0822 22.0602 6.15778 22.257 6.29331C22.4538 6.42883 22.6059 6.61834 22.6945 6.83833C22.783 7.05831 22.8042 7.2991 22.7553 7.53083C22.7064 7.76255 22.5896 7.97503 22.4193 8.14189C22.3791 8.18121 22.3504 8.2306 22.3365 8.28476C22.3226 8.33892 22.3239 8.39579 22.3404 8.44926C22.3568 8.50273 22.3877 8.55077 22.4297 8.58822C22.4718 8.62567 22.5234 8.65111 22.579 8.66179C22.8276 8.70969 23.0591 8.8215 23.2498 8.98592C23.4406 9.15034 23.5839 9.36152 23.6654 9.59811C23.7468 9.8347 23.7634 10.0883 23.7135 10.3332C23.6636 10.5782 23.5489 10.8058 23.3812 10.993C23.3487 11.0293 23.3254 11.0727 23.3131 11.1196C23.3009 11.1664 23.3001 11.2155 23.3107 11.2628C23.3213 11.31 23.3431 11.3542 23.3743 11.3915C23.4055 11.4289 23.4452 11.4585 23.4902 11.4779C23.7492 11.5902 23.9707 11.7725 24.1292 12.0036C24.2876 12.2347 24.3766 12.5053 24.3858 12.7842C24.395 13.063 24.3241 13.3388 24.1812 13.5796C24.0384 13.8204 23.8293 14.0165 23.5783 14.1452C23.5227 14.1736 23.477 14.2178 23.4473 14.2722C23.4175 14.3265 23.4051 14.3884 23.4115 14.4499C23.418 14.5113 23.443 14.5694 23.4835 14.6166C23.5239 14.6638 23.5778 14.6978 23.6382 14.7144H23.6383ZM11.5257 6.93896V16.7955C11.5255 16.9527 11.4621 17.1034 11.3493 17.2146C11.2366 17.3257 11.0838 17.3883 10.9243 17.3885H6.43972C6.28029 17.3883 6.12745 17.3257 6.01471 17.2146C5.90197 17.1034 5.83854 16.9527 5.83832 16.7955V6.93896C5.83852 6.78174 5.90195 6.63102 6.01469 6.51985C6.12743 6.40868 6.28028 6.34614 6.43972 6.34594H10.9243C11.0838 6.34615 11.2366 6.4087 11.3493 6.51987C11.4621 6.63103 11.5255 6.78175 11.5257 6.93896Z" fill="url(#paint0_linear_267_4386)"/>
<defs>
<linearGradient id="paint0_linear_267_4386" x1="-0.014589" y1="14.9745" x2="30.4088" y2="14.9745" gradientUnits="userSpaceOnUse">
<stop stop-color="#FECB5B"/>
<stop offset="1" stop-color="#E69B23"/>
</linearGradient>
</defs>
</svg>
