<svg width="10" height="10" viewBox="0 0 10 10" fill="none" xmlns="http://www.w3.org/2000/svg">
<rect x="0.5" y="0.5" width="9" height="9" rx="1.5" stroke="#3D97FF"/>
<path d="M4.50025 7.00025C4.50025 7.27639 4.72411 7.50025 5.00025 7.50025C5.27639 7.50025 5.50025 7.27639 5.50025 7.00025L5.00025 7.00025L4.50025 7.00025ZM5.50025 5.00025C5.50025 4.72411 5.27639 4.50025 5.00025 4.50025C4.72411 4.50025 4.50025 4.72411 4.50025 5.00025L5.00025 5.00025L5.50025 5.00025ZM4.50025 4.99975C4.50025 5.27589 4.72411 5.49975 5.00025 5.49975C5.27639 5.49975 5.50025 5.27589 5.50025 4.99975L5.00025 4.99975L4.50025 4.99975ZM5.50025 2.99975C5.50025 2.72361 5.27639 2.49975 5.00025 2.49975C4.72411 2.49975 4.50025 2.72361 4.50025 2.99975L5.00025 2.99975L5.50025 2.99975ZM5.00017 4.5C4.72403 4.5 4.50017 4.72386 4.50017 5C4.50017 5.27614 4.72403 5.5 5.00017 5.5V5V4.5ZM7.00017 5.5C7.27631 5.5 7.50017 5.27614 7.50017 5C7.50017 4.72386 7.27631 4.5 7.00017 4.5L7.00017 5V5.5ZM5.0002 5.5C5.27635 5.5 5.5002 5.27614 5.5002 5C5.5002 4.72386 5.27635 4.5 5.0002 4.5V5V5.5ZM3.0002 4.5C2.72406 4.5 2.5002 4.72386 2.5002 5C2.5002 5.27614 2.72406 5.5 3.0002 5.5V5V4.5ZM5.00025 7.00025L5.50025 7.00025L5.50025 5.00025L5.00025 5.00025L4.50025 5.00025L4.50025 7.00025L5.00025 7.00025ZM5.00025 4.99975L5.50025 4.99975L5.50025 2.99975L5.00025 2.99975L4.50025 2.99975L4.50025 4.99975L5.00025 4.99975ZM5.00017 5V5.5H7.00017V5L7.00017 4.5H5.00017V5ZM5.0002 5V4.5H3.0002V5V5.5H5.0002V5Z" fill="#3D97FF"/>
</svg>
