<svg width="41" height="41" viewBox="0 0 41 41" fill="none" xmlns="http://www.w3.org/2000/svg">
<rect width="41" height="41" rx="10" fill="url(#paint0_radial_1833_28494)"/>
<path fill-rule="evenodd" clip-rule="evenodd" d="M18.8327 25.517C18.8056 25.0765 19.0035 23.9345 19.1273 23.4984C19.3248 22.8034 20.2498 23.041 21.0152 23.0477C22.1432 23.0576 24.6386 22.8195 25.2782 23.4107C25.6547 23.7587 25.8302 24.4881 25.4526 25.0368C25.0629 25.6032 24.394 25.5553 23.5232 25.5524C22.0687 25.5476 20.2405 25.6503 18.8327 25.517ZM20.3378 17.8756C20.2502 17.2937 20.5129 15.9159 20.7872 15.4914C21.7623 15.3569 23.283 15.4508 24.3213 15.446C25.457 15.4408 26.6265 15.6073 26.3664 16.9562C26.1368 18.1464 24.6873 17.9521 23.8652 17.9496C22.9733 17.9469 21.022 18.056 20.3378 17.8756ZM28.2596 20.841C28.5873 21.78 29.8748 22.6938 29.4261 25.2447C29.1548 26.788 28.097 27.9905 27.1766 28.5784C25.685 29.531 24.3438 29.3924 22.3832 29.3915C20.5211 29.3905 18.6595 29.393 16.7973 29.393C15.4863 29.393 12.4266 29.6286 11.5609 29.0192C10.1631 28.0352 10.772 26.5292 11.0947 24.8189C11.6714 21.7634 12.2481 18.4877 12.9181 15.4982L15.3383 15.4491C15.4366 16.8401 13.0525 26.3362 13.3683 26.738C13.6028 27.0365 19.4685 26.8913 19.7612 26.8909C21.4331 26.8889 24.7334 27.2288 25.9186 26.4144C27.4095 25.3898 27.3447 23.0906 25.774 22.1217C24.3466 21.2411 20.7634 22.1687 19.6375 21.6543C19.412 21.1756 19.7989 19.8081 20.0097 19.2864C22.0586 19.0815 25.4147 19.7506 26.8153 18.6699C27.4219 18.2019 27.9856 17.0971 27.6282 15.9423C27.3227 14.9555 26.6995 14.4132 25.672 14.1474C25.654 13.6588 25.8313 12.7021 25.9449 12.236C26.0521 11.7955 26.0482 11.7104 26.5305 11.7972C27.7184 12.011 29.0593 13.2054 29.6653 14.3741C30.4954 15.9749 30.4429 18.0906 29.3077 19.5604C28.948 20.0261 28.4628 20.356 28.2596 20.841ZM29.9881 20.9547C31.0813 19.2739 32.1448 17.5352 31.2976 14.7988C30.7319 12.9717 29.2703 11.4146 27.5912 10.7604C26.6907 10.4094 25.5316 10.284 24.3176 10.25H22.5296C21.7194 10.2656 20.9286 10.2929 20.2172 10.2926C19.7215 10.2924 18.9591 10.2717 18.0996 10.25H12.5233C12.1214 11.9088 12.6618 11.6041 14.4034 11.609L24.3057 11.6365C24.5824 11.6872 24.4521 11.6599 24.5761 11.7285C24.7274 12.1427 24.3799 13.6723 24.1584 14.1001L24.1252 14.0995V14.1104H19.6182C19.1576 15.569 18.7823 18.3001 18.4745 19.9086C18.2883 20.8816 17.6142 24.9644 17.2914 25.5402C15.2924 25.7152 14.7928 25.7696 14.9693 24.8309C15.0137 24.5947 15.0592 24.4156 15.11 24.1545L15.9399 19.8687C16.1307 18.8872 17.0211 14.9392 16.9558 14.1104H11.7739C11.4864 14.9861 9.92928 23.8033 9.7433 24.819C9.37309 26.8402 8.97689 28.6109 10.4037 29.829C11.8328 31.0491 13.6538 30.7034 15.8854 30.7086C18.0132 30.7134 20.1413 30.7079 22.2692 30.7095C24.5066 30.7112 26.038 30.8349 27.7266 29.8101C28.9806 29.049 30.0214 27.8914 30.5483 26.2515C31.4912 23.3165 29.9068 21.3775 29.9881 20.9547Z" fill="white"/>
<defs>
<radialGradient id="paint0_radial_1833_28494" cx="0" cy="0" r="1" gradientUnits="userSpaceOnUse" gradientTransform="translate(30.1805 11.3889) rotate(135.744) scale(31.0073 31.0073)">
<stop stop-color="#3D97FF"/>
<stop offset="1" stop-color="#006DEA"/>
</radialGradient>
</defs>
</svg>
