<svg width="155" height="32" viewBox="0 0 155 32" fill="none" xmlns="http://www.w3.org/2000/svg">
<path d="M50.1261 9.81452H54.0417V23.6394H50.1261V9.81452ZM44.0659 8.08252H60.1019V11.5535H44.0659V8.08252ZM64.7093 14.9345H70.5447C71.2849 14.9345 71.866 14.7651 72.288 14.4228C72.7135 14.084 72.9244 13.6104 72.9244 13.002C72.9244 12.39 72.7135 11.913 72.288 11.5776C71.866 11.2423 71.2849 11.0729 70.5447 11.0729H64.1593L65.913 9.14384V23.6394H61.9974V8.08252H71.0566C72.2188 8.08252 73.2358 8.28993 74.1074 8.70133C74.9826 9.11622 75.6605 9.68659 76.1517 10.4195C76.6394 11.1524 76.8815 12.0132 76.8815 13.002C76.8815 13.9665 76.6394 14.8135 76.1517 15.5498C75.6605 16.2862 74.9826 16.8601 74.1074 17.268C73.2358 17.6794 72.2188 17.8834 71.0566 17.8834H64.7093V14.9345ZM67.2206 16.3588H71.6516L77.3797 23.6394H72.8207L67.2206 16.3588ZM84.1524 23.6394V16.103H88.068V23.6394H84.1524ZM76.8435 8.08252H81.188L87.0061 15.46H85.197L91.0047 8.08252H95.3492L87.3658 18.2014L84.8477 18.2395L76.8435 8.08252ZM111.825 15.9992L112.157 15.2387C113.364 15.2629 114.36 15.4496 115.145 15.7987C115.93 16.1444 116.512 16.618 116.892 17.2162C117.269 17.8176 117.459 18.5091 117.459 19.2939C117.459 20.1304 117.266 20.8737 116.878 21.5306C116.491 22.1839 115.913 22.6991 115.145 23.0759C114.377 23.4527 113.419 23.6394 112.274 23.6394H101.064L102.271 15.6535L101.064 8.08252H111.873C113.312 8.08252 114.429 8.41786 115.225 9.08854C116.024 9.75922 116.422 10.6857 116.422 11.868C116.422 12.5145 116.273 13.1333 115.972 13.7245C115.671 14.3157 115.187 14.8135 114.516 15.2214C113.845 15.6294 112.949 15.8886 111.825 15.9992ZM104.938 22.6956L103.44 20.8322H111.337C112.015 20.8322 112.544 20.6698 112.925 20.3448C113.305 20.0198 113.495 19.5635 113.495 18.9724C113.495 18.3777 113.284 17.9041 112.859 17.5515C112.437 17.1954 111.811 17.0191 110.988 17.0191H104.512V14.288H110.482C111.05 14.288 111.52 14.1255 111.894 13.8005C112.271 13.479 112.458 13.0296 112.458 12.4557C112.458 11.9994 112.295 11.626 111.977 11.3287C111.655 11.0349 111.195 10.8863 110.597 10.8863H103.45L104.938 9.02632L106.017 15.6535L104.938 22.6956ZM123.395 16.7563C123.395 17.5203 123.544 18.1807 123.841 18.7373C124.135 19.2939 124.568 19.7225 125.142 20.0233C125.713 20.3241 126.411 20.4727 127.234 20.4727C128.075 20.4727 128.777 20.3241 129.344 20.0268C129.912 19.7294 130.341 19.3008 130.635 18.7407C130.925 18.1807 131.074 17.5203 131.074 16.7563V8.08252H134.99V16.943C134.99 18.3501 134.664 19.5773 134.018 20.6317C133.371 21.6827 132.468 22.502 131.306 23.0863C130.147 23.674 128.791 23.9678 127.234 23.9678C125.695 23.9678 124.343 23.674 123.177 23.0863C122.015 22.502 121.105 21.6827 120.455 20.6317C119.805 19.5773 119.479 18.3501 119.479 16.943V8.08252H123.395V16.7563ZM143.803 23.6394V16.103H147.719V23.6394H143.803ZM136.494 8.08252H140.839L146.657 15.46H144.848L150.655 8.08252H155L147.017 18.2014L144.498 18.2395L136.494 8.08252Z" fill="white"/>
<path fill-rule="evenodd" clip-rule="evenodd" d="M14.7273 23.8314C14.6849 23.1439 14.9937 21.3612 15.187 20.6805C15.4952 19.5956 16.9388 19.9664 18.1333 19.9768C19.8936 19.9923 23.788 19.6207 24.7862 20.5436C25.3736 21.0868 25.6475 22.2254 25.0583 23.0818C24.4501 23.966 23.4062 23.8911 22.0473 23.8866C19.7774 23.8792 16.9243 24.0395 14.7273 23.8314ZM17.0762 11.9034C16.9394 10.995 17.3494 8.84432 17.7775 8.18177C19.2992 7.97179 21.6724 8.11832 23.2928 8.11087C25.0652 8.10264 26.8903 8.36263 26.4843 10.4682C26.1261 12.3262 23.8639 12.0228 22.581 12.019C21.1891 12.0147 18.1439 12.1849 17.0762 11.9034ZM29.4389 16.5323C29.9503 17.9981 31.9596 19.4244 31.2595 23.4063C30.8359 25.8154 29.1853 27.6925 27.7488 28.6103C25.421 30.0972 23.3279 29.8809 20.2681 29.8794C17.3621 29.8779 14.457 29.8817 11.5508 29.8818C9.50473 29.8818 4.72976 30.2495 3.37883 29.2983C1.19727 27.7622 2.14756 25.4114 2.65128 22.7417C3.5512 17.9721 4.45128 12.8589 5.49678 8.19233L9.27381 8.11561C9.42726 10.2869 5.7066 25.1102 6.19934 25.7373C6.56541 26.2033 15.7194 25.9767 16.1763 25.9761C18.7855 25.9728 23.9359 26.5035 25.7856 25.2322C28.1123 23.6329 28.0112 20.0438 25.56 18.5314C23.3322 17.1569 17.7403 18.6048 15.9832 17.8019C15.6313 17.0547 16.2351 14.9199 16.5641 14.1056C19.7615 13.7858 24.9992 14.8302 27.185 13.1433C28.1316 12.4127 29.0113 10.6882 28.4535 8.88556C27.9768 7.34519 27.0042 6.49859 25.4007 6.08368C25.3726 5.3211 25.6493 3.82771 25.8265 3.10016C25.9938 2.41252 25.9878 2.27957 26.7405 2.41516C28.5943 2.74892 30.687 4.61327 31.6328 6.43763C32.9281 8.93643 32.8462 12.239 31.0745 14.5333C30.5132 15.2603 29.7561 15.7752 29.4389 16.5323ZM32.1364 16.7098C33.8426 14.0861 35.5023 11.3721 34.1801 7.1005C33.2973 4.24845 31.0163 1.81799 28.3958 0.796665C26.9905 0.248884 25.1817 0.0530386 23.2871 0H20.4967C19.2323 0.0243838 17.9981 0.0669414 16.8879 0.0665531C16.1143 0.0662425 14.9245 0.0339354 13.5831 0H4.88064C4.25345 2.58934 5.09677 2.1137 7.81482 2.12131L23.2685 2.16433C23.7002 2.24339 23.4969 2.20075 23.6904 2.30792C23.9266 2.9544 23.3842 5.34207 23.0385 6.0099L22.9867 6.00897V6.02598H15.953C15.2343 8.30284 14.6486 12.566 14.1681 15.0769C13.8776 16.5957 12.8255 22.9688 12.3219 23.8677C9.20211 24.1408 8.42255 24.2257 8.69793 22.7605C8.76722 22.3917 8.8383 22.1122 8.91755 21.7046L10.2127 15.0145C10.5105 13.4825 11.9 7.3198 11.7982 6.02598H3.71119C3.26244 7.39295 0.832443 21.1564 0.542201 22.7419C-0.0355567 25.8968 -0.653876 28.6609 1.57276 30.5623C3.80314 32.4669 6.6449 31.9273 10.1276 31.9353C13.4482 31.9429 16.7695 31.9342 20.0902 31.9367C23.582 31.9394 25.9719 32.1325 28.6072 30.5328C30.5642 29.3447 32.1885 27.5378 33.0106 24.978C34.4822 20.3965 32.0096 17.3697 32.1364 16.7098Z" fill="url(#paint0_linear_1070_10379)"/>
<defs>
<linearGradient id="paint0_linear_1070_10379" x1="2.37568" y1="16.2486" x2="34.6586" y2="16.2486" gradientUnits="userSpaceOnUse">
<stop stop-color="#0077FF"/>
<stop offset="1" stop-color="#3D97FF"/>
</linearGradient>
</defs>
</svg>
