<svg width="7" height="12" viewBox="0 0 7 12" fill="none" xmlns="http://www.w3.org/2000/svg">
<path d="M6 4.34766C6.55228 4.34766 7 4.79537 7 5.34766V10.1152L6.99512 10.2178C6.94722 10.6882 6.57297 11.0625 6.10254 11.1104L6 11.1152H1L0.897461 11.1104C0.393331 11.059 0 10.6329 0 10.1152V5.34766C8.66983e-08 4.79537 0.447715 4.34766 1 4.34766H2.2002V5.04785H1C0.834315 5.04785 0.700195 5.18197 0.700195 5.34766V10.1152C0.700195 10.2809 0.834315 10.415 1 10.415H6C6.16569 10.415 6.2998 10.2809 6.2998 10.1152V5.34766C6.2998 5.18197 6.16569 5.04785 6 5.04785H4.95605V4.34766H6Z" fill="#0077FF"/>
<path d="M3.8471 0.102479C3.71041 -0.0342045 3.48881 -0.0342045 3.35212 0.102479L1.12474 2.32987C0.988052 2.46655 0.988052 2.68816 1.12474 2.82484C1.26142 2.96152 1.48303 2.96152 1.61971 2.82484L3.59961 0.844941L5.57951 2.82484C5.71619 2.96152 5.9378 2.96152 6.07448 2.82484C6.21117 2.68816 6.21117 2.46655 6.07448 2.32987L3.8471 0.102479ZM3.59961 5.88843H3.94961L3.94961 0.349966H3.59961H3.24961L3.24961 5.88843H3.59961Z" fill="#0077FF"/>
</svg>
