<svg width="13" height="20" viewBox="0 0 13 20" fill="none" xmlns="http://www.w3.org/2000/svg">
<path d="M13 20H0V7H5V8H1V19H12V8H8V7H13V20Z" fill="#3D97FF"/>
<path d="M6.85355 0.646446C6.65829 0.451184 6.34171 0.451184 6.14645 0.646446L2.96447 3.82843C2.7692 4.02369 2.7692 4.34027 2.96447 4.53553C3.15973 4.7308 3.47631 4.7308 3.67157 4.53553L6.5 1.70711L9.32843 4.53553C9.52369 4.7308 9.84027 4.7308 10.0355 4.53553C10.2308 4.34027 10.2308 4.02369 10.0355 3.82843L6.85355 0.646446ZM6.5 13H7L7 1H6.5H6L6 13H6.5Z" fill="#3D97FF"/>
</svg>
