<svg width="12" height="12" viewBox="0 0 12 12" fill="none" xmlns="http://www.w3.org/2000/svg">
<g opacity="0.8">
<path fill-rule="evenodd" clip-rule="evenodd" d="M5.75262 4.39303C6.14131 3.77979 6.06648 2.98137 5.57062 2.45103C5.08658 1.93338 4.29498 1.85188 3.71562 2.26003C3.47163 2.43211 3.28352 2.67203 3.17462 2.95003C3.06319 3.23247 3.03407 3.54071 3.09062 3.83903C3.14532 4.13472 3.28421 4.40834 3.49062 4.62703C3.69282 4.84033 3.95507 4.98715 4.24262 5.04803C4.5279 5.10724 4.82454 5.0765 5.09162 4.96003C5.36363 4.84128 5.59385 4.6438 5.75262 4.39303V4.39303Z" stroke="white" stroke-linecap="round" stroke-linejoin="round"/>
<path fill-rule="evenodd" clip-rule="evenodd" d="M6.24768 9.316C5.85899 8.70276 5.93382 7.90434 6.42968 7.374C6.91372 6.85636 7.70532 6.77485 8.28468 7.183C8.52867 7.35508 8.71678 7.595 8.82568 7.873C8.93711 8.15545 8.96623 8.46368 8.90968 8.762C8.85498 9.05769 8.71609 9.33131 8.50968 9.55C8.30748 9.7633 8.04522 9.91012 7.75768 9.971C7.47239 10.0302 7.17576 9.99947 6.90868 9.883C6.63667 9.76425 6.40645 9.56677 6.24768 9.316Z" stroke="white" stroke-linecap="round" stroke-linejoin="round"/>
<path d="M6 3.03809C5.72386 3.03809 5.5 3.26194 5.5 3.53809C5.5 3.81423 5.72386 4.03809 6 4.03809V3.53809V3.03809ZM10 4.03809C10.2761 4.03809 10.5 3.81423 10.5 3.53809C10.5 3.26194 10.2761 3.03809 10 3.03809V3.53809V4.03809ZM3.061 4.03809C3.33714 4.03809 3.561 3.81423 3.561 3.53809C3.561 3.26194 3.33714 3.03809 3.061 3.03809V3.53809V4.03809ZM2 3.03809C1.72386 3.03809 1.5 3.26194 1.5 3.53809C1.5 3.81423 1.72386 4.03809 2 4.03809V3.53809V3.03809ZM6 8.96209C6.27614 8.96209 6.5 8.73823 6.5 8.46209C6.5 8.18594 6.27614 7.96209 6 7.96209V8.46209V8.96209ZM2 7.96209C1.72386 7.96209 1.5 8.18594 1.5 8.46209C1.5 8.73823 1.72386 8.96209 2 8.96209V8.46209V7.96209ZM8.93945 7.96204C8.66331 7.96204 8.43945 8.18589 8.43945 8.46204C8.43945 8.73818 8.66331 8.96204 8.93945 8.96204V8.46204V7.96204ZM10.0005 8.96204C10.2766 8.96204 10.5005 8.73818 10.5005 8.46204C10.5005 8.18589 10.2766 7.96204 10.0005 7.96204V8.46204V8.96204ZM6 3.53809V4.03809H10V3.53809V3.03809H6V3.53809ZM3.061 3.53809V3.03809H2V3.53809V4.03809H3.061V3.53809ZM6 8.46209V7.96209H2V8.46209V8.96209H6V8.46209ZM8.93945 8.46204V8.96204H10.0005V8.46204V7.96204H8.93945V8.46204Z" fill="white"/>
</g>
</svg>
