<svg width="30" height="30" viewBox="0 0 30 30" fill="none" xmlns="http://www.w3.org/2000/svg">
<path fill-rule="evenodd" clip-rule="evenodd" d="M23.75 19.8612C23.75 22.0089 22.0089 23.75 19.8612 23.75H10.1387C7.99105 23.75 6.25 22.0089 6.25 19.8612V10.1387C6.25 7.99105 7.99105 6.25 10.1387 6.25H19.8612C22.0089 6.25 23.75 7.99105 23.75 10.1387V19.8612Z" stroke="white" stroke-linecap="round" stroke-linejoin="round"/>
<path fill-rule="evenodd" clip-rule="evenodd" d="M14.6898 12.9913C15.1757 12.2247 15.0821 11.2267 14.4623 10.5638C13.8572 9.91673 12.8677 9.81484 12.1435 10.325C11.8386 10.5401 11.6034 10.84 11.4673 11.1875C11.328 11.5406 11.2916 11.9259 11.3623 12.2988C11.4307 12.6684 11.6043 13.0104 11.8623 13.2838C12.115 13.5504 12.4429 13.7339 12.8023 13.81C13.1589 13.8841 13.5297 13.8456 13.8635 13.7C14.2036 13.5516 14.4913 13.3047 14.6898 12.9913V12.9913Z" stroke="white" stroke-linecap="round" stroke-linejoin="round"/>
<path fill-rule="evenodd" clip-rule="evenodd" d="M15.3101 19.145C14.8242 18.3785 14.9178 17.3804 15.5376 16.7175C16.1426 16.0704 17.1321 15.9686 17.8563 16.4787C18.1613 16.6939 18.3965 16.9937 18.5326 17.3412C18.6719 17.6943 18.7083 18.0796 18.6376 18.4525C18.5692 18.8221 18.3956 19.1641 18.1376 19.4375C17.8848 19.7041 17.557 19.8877 17.1976 19.9637C16.841 20.0378 16.4702 19.9993 16.1363 19.8537C15.7963 19.7053 15.5085 19.4585 15.3101 19.145Z" stroke="white" stroke-linecap="round" stroke-linejoin="round"/>
<path d="M15 11.4225C14.7239 11.4225 14.5 11.6464 14.5 11.9225C14.5 12.1987 14.7239 12.4225 15 12.4225V11.9225V11.4225ZM20 12.4225C20.2761 12.4225 20.5 12.1987 20.5 11.9225C20.5 11.6464 20.2761 11.4225 20 11.4225V11.9225V12.4225ZM11.3263 12.4225C11.6024 12.4225 11.8263 12.1987 11.8263 11.9225C11.8263 11.6464 11.6024 11.4225 11.3263 11.4225V11.9225V12.4225ZM10 11.4225C9.72386 11.4225 9.5 11.6464 9.5 11.9225C9.5 12.1987 9.72386 12.4225 10 12.4225V11.9225V11.4225ZM15 18.5775C15.2761 18.5775 15.5 18.3537 15.5 18.0775C15.5 17.8014 15.2761 17.5775 15 17.5775V18.0775V18.5775ZM10 17.5775C9.72386 17.5775 9.5 17.8014 9.5 18.0775C9.5 18.3537 9.72386 18.5775 10 18.5775V18.0775V17.5775ZM18.6738 17.5775C18.3976 17.5775 18.1738 17.8014 18.1738 18.0775C18.1738 18.3537 18.3976 18.5775 18.6738 18.5775V18.0775V17.5775ZM20 18.5775C20.2761 18.5775 20.5 18.3537 20.5 18.0775C20.5 17.8014 20.2761 17.5775 20 17.5775V18.0775V18.5775ZM15 11.9225V12.4225H20V11.9225V11.4225H15V11.9225ZM11.3263 11.9225V11.4225H10V11.9225V12.4225H11.3263V11.9225ZM15 18.0775V17.5775H10V18.0775V18.5775H15V18.0775ZM18.6738 18.0775V18.5775H20V18.0775V17.5775H18.6738V18.0775Z" fill="white"/>
</svg>
