<svg width="142" height="36" viewBox="0 0 142 36" fill="none" xmlns="http://www.w3.org/2000/svg">
<rect width="142" height="36" rx="18" fill="url(#paint0_radial_116_2598)"/>
<path fill-rule="evenodd" clip-rule="evenodd" d="M6 18C6 24.6274 11.3726 30 18 30C24.6274 30 30 24.6274 30 18C30 11.3726 24.6274 6 18 6C11.3726 6 6 11.3726 6 18ZM15.8 23.5L16.0042 20.4411L16.004 20.441L21.5685 15.4195C21.8127 15.2028 21.5151 15.0971 21.1909 15.2937L14.3236 19.6262L11.3573 18.7003C10.7168 18.5042 10.7122 18.064 11.5012 17.7475L23.0602 13.2904C23.5881 13.0507 24.0976 13.4172 23.8961 14.2253L21.9276 23.5015C21.7901 24.1607 21.3919 24.3184 20.84 24.0139L17.8414 21.7985L16.4 23.2C16.3955 23.2044 16.3909 23.2088 16.3864 23.2132C16.2252 23.3701 16.0919 23.5 15.8 23.5Z" fill="#23262F"/>
<path d="M41.344 12.2H48.484V22H47.238V13.348H42.562V22H41.344V12.2ZM54.313 22.168C53.5664 22.168 52.885 22 52.269 21.664C51.653 21.3187 51.1724 20.8473 50.827 20.25C50.4817 19.6433 50.309 18.9667 50.309 18.22C50.309 17.0813 50.687 16.1387 51.443 15.392C52.2084 14.6453 53.165 14.272 54.313 14.272C55.069 14.272 55.7504 14.4447 56.357 14.79C56.973 15.126 57.4537 15.5973 57.799 16.204C58.1537 16.8013 58.331 17.4733 58.331 18.22C58.331 19.3493 57.9484 20.292 57.183 21.048C56.4177 21.7947 55.461 22.168 54.313 22.168ZM52.311 20.236C52.843 20.7587 53.5104 21.02 54.313 21.02C55.125 21.02 55.7924 20.7587 56.315 20.236C56.847 19.704 57.113 19.032 57.113 18.22C57.113 17.408 56.847 16.7407 56.315 16.218C55.7924 15.686 55.125 15.42 54.313 15.42C53.5104 15.42 52.843 15.686 52.311 16.218C51.7884 16.7407 51.527 17.408 51.527 18.22C51.527 19.032 51.7884 19.704 52.311 20.236ZM66.3035 20.88H67.3255V24.002H66.2335V22H60.1435V24.002H59.0515V20.88H59.8635C60.0875 20.6747 60.2602 20.3853 60.3815 20.012C60.5028 19.6293 60.6102 19.0507 60.7035 18.276C60.8062 17.492 60.9275 16.2133 61.0675 14.44H66.3035V20.88ZM62.1315 15.49C62.0475 16.7407 61.9588 17.716 61.8655 18.416C61.7815 19.1067 61.6835 19.6387 61.5715 20.012C61.4595 20.376 61.3148 20.6653 61.1375 20.88H65.1415V15.49H62.1315ZM75.409 20.88H76.431V24.002H75.339V22H69.249V24.002H68.157V20.88H68.969C69.193 20.6747 69.3656 20.3853 69.487 20.012C69.6083 19.6293 69.7156 19.0507 69.809 18.276C69.9116 17.492 70.033 16.2133 70.173 14.44H75.409V20.88ZM71.237 15.49C71.153 16.7407 71.0643 17.716 70.971 18.416C70.887 19.1067 70.789 19.6387 70.677 20.012C70.565 20.376 70.4203 20.6653 70.243 20.88H74.247V15.49H71.237ZM85.1197 18.248C85.1197 18.3507 85.1104 18.4953 85.0917 18.682H78.6377C78.731 19.382 79.0204 19.9467 79.5057 20.376C79.991 20.796 80.5884 21.006 81.2977 21.006C81.8204 21.006 82.2824 20.894 82.6837 20.67C83.0944 20.4367 83.421 20.11 83.6637 19.69H84.9097C84.5924 20.474 84.1164 21.0853 83.4817 21.524C82.847 21.9533 82.119 22.168 81.2977 22.168C80.2057 22.168 79.291 21.79 78.5537 21.034C77.8164 20.278 77.4477 19.34 77.4477 18.22C77.4477 17.0907 77.8164 16.1527 78.5537 15.406C79.291 14.65 80.2057 14.272 81.2977 14.272C82.427 14.272 83.3464 14.6547 84.0557 15.42C84.765 16.1853 85.1197 17.128 85.1197 18.248ZM81.2977 15.406C80.8497 15.406 80.439 15.4947 80.0657 15.672C79.7017 15.8493 79.3984 16.106 79.1557 16.442C78.913 16.7687 78.7497 17.1467 78.6657 17.576H83.9157C83.8317 17.1373 83.6684 16.7547 83.4257 16.428C83.183 16.092 82.8797 15.84 82.5157 15.672C82.1517 15.4947 81.7457 15.406 81.2977 15.406ZM90.8994 14.272C92.0287 14.272 92.9574 14.6453 93.6854 15.392C94.4227 16.1387 94.7914 17.0813 94.7914 18.22C94.7914 19.3493 94.4227 20.292 93.6854 21.048C92.9574 21.7947 92.0287 22.168 90.8994 22.168C89.7607 22.168 88.8227 21.776 88.0854 20.992V24.702H86.8954V14.44H87.7074L87.9454 15.602C88.3001 15.182 88.7294 14.8553 89.2334 14.622C89.7467 14.3887 90.3021 14.272 90.8994 14.272ZM90.8154 21.02C91.6181 21.02 92.2807 20.754 92.8034 20.222C93.3261 19.69 93.5874 19.0227 93.5874 18.22C93.5874 17.4173 93.3261 16.75 92.8034 16.218C92.2807 15.686 91.6181 15.42 90.8154 15.42C90.0127 15.42 89.3454 15.6907 88.8134 16.232C88.2907 16.764 88.0294 17.4267 88.0294 18.22C88.0294 18.7427 88.1461 19.2187 88.3794 19.648C88.6221 20.0773 88.9581 20.4133 89.3874 20.656C89.8167 20.8987 90.2927 21.02 90.8154 21.02ZM104.938 22L102.39 18.612H101.382V22H100.234V18.612H99.2257L96.6777 22H95.2217L98.2037 18.01L95.5017 14.44H96.8877L99.2257 17.548H100.234V14.44H101.382V17.548H102.39L104.728 14.44H106.114L103.412 18.01L106.394 22H104.938ZM112.494 22L109.904 18.612H108.826V22H107.636V14.44H108.826V17.506H109.918L112.256 14.44H113.698L110.94 18.066L113.978 22H112.494ZM121.431 14.44H122.383V22H121.389L121.263 20.852C120.908 21.272 120.474 21.5987 119.961 21.832C119.457 22.056 118.902 22.168 118.295 22.168C117.184 22.168 116.256 21.7947 115.509 21.048C114.762 20.292 114.389 19.3493 114.389 18.22C114.389 17.0907 114.762 16.1527 115.509 15.406C116.256 14.65 117.184 14.272 118.295 14.272C118.911 14.272 119.471 14.3887 119.975 14.622C120.488 14.8553 120.922 15.182 121.277 15.602L121.431 14.44ZM116.391 20.222C116.923 20.754 117.59 21.02 118.393 21.02C119.196 21.02 119.858 20.754 120.381 20.222C120.904 19.69 121.165 19.0227 121.165 18.22C121.165 17.4173 120.904 16.75 120.381 16.218C119.858 15.686 119.196 15.42 118.393 15.42C117.59 15.42 116.923 15.6907 116.391 16.232C115.868 16.764 115.607 17.4267 115.607 18.22C115.607 19.0133 115.868 19.6807 116.391 20.222Z" fill="#3F3F3F"/>
<defs>
<radialGradient id="paint0_radial_116_2598" cx="0" cy="0" r="1" gradientUnits="userSpaceOnUse" gradientTransform="translate(4.66746e-06 36) rotate(-13.003) scale(137.777 35.6789)">
<stop offset="0.71871" stop-color="#F3F3F3"/>
<stop offset="1" stop-color="#B6B6B6"/>
</radialGradient>
</defs>
</svg>
