<svg width="107" height="36" viewBox="0 0 107 36" fill="none" xmlns="http://www.w3.org/2000/svg">
<rect width="96" height="36" rx="18" fill="url(#paint0_radial_9_607)"/>
<path d="M39.606 12.2C41.0433 12.2 42.2287 12.662 43.162 13.586C44.1047 14.51 44.576 15.6813 44.576 17.1C44.576 18.5187 44.1047 19.69 43.162 20.614C42.2287 21.538 41.0433 22 39.606 22H36.344V12.2H39.606ZM39.564 20.852C40.6653 20.852 41.566 20.4973 42.266 19.788C42.966 19.0787 43.316 18.1827 43.316 17.1C43.316 16.3813 43.1573 15.7373 42.84 15.168C42.5227 14.5987 42.0793 14.1553 41.51 13.838C40.9407 13.5113 40.292 13.348 39.564 13.348H37.562V20.852H39.564ZM46.0672 13.124V11.766H47.3552V13.124H46.0672ZM46.1232 22V14.44H47.3132V22H46.1232ZM51.8192 22.168C51.2219 22.168 50.6992 22.07 50.2512 21.874C49.8032 21.6687 49.4532 21.3793 49.2012 21.006C48.9492 20.6233 48.8139 20.18 48.7952 19.676H49.9572C49.9852 20.1147 50.1719 20.4553 50.5172 20.698C50.8626 20.9407 51.3059 21.062 51.8472 21.062C52.3792 21.062 52.8086 20.9593 53.1352 20.754C53.4619 20.5393 53.6252 20.25 53.6252 19.886C53.6252 19.746 53.6019 19.62 53.5552 19.508C53.5179 19.396 53.4479 19.298 53.3452 19.214C53.2426 19.13 53.1399 19.06 53.0372 19.004C52.9346 18.948 52.7946 18.8967 52.6172 18.85C52.4492 18.8033 52.2999 18.7707 52.1692 18.752C52.0479 18.724 51.8799 18.6913 51.6652 18.654C51.4226 18.6167 51.2359 18.584 51.1052 18.556C50.9746 18.528 50.7972 18.486 50.5732 18.43C50.3492 18.3647 50.1719 18.2993 50.0412 18.234C49.9106 18.1687 49.7659 18.08 49.6072 17.968C49.4486 17.856 49.3272 17.7347 49.2432 17.604C49.1592 17.4733 49.0846 17.31 49.0192 17.114C48.9632 16.918 48.9352 16.6987 48.9352 16.456C48.9352 16.1387 49.0006 15.8447 49.1312 15.574C49.2712 15.3033 49.4626 15.0747 49.7052 14.888C49.9572 14.692 50.2606 14.5427 50.6152 14.44C50.9699 14.328 51.3572 14.272 51.7772 14.272C52.6359 14.272 53.3219 14.482 53.8352 14.902C54.3486 15.322 54.6146 15.8913 54.6333 16.61H53.5132C53.4946 16.3393 53.4106 16.1107 53.2612 15.924C53.1212 15.728 52.9206 15.5833 52.6592 15.49C52.4072 15.3873 52.1086 15.336 51.7632 15.336C51.4179 15.336 51.1192 15.3827 50.8672 15.476C50.6152 15.56 50.4192 15.686 50.2792 15.854C50.1486 16.022 50.0832 16.2133 50.0832 16.428C50.0832 16.5773 50.1206 16.7127 50.1952 16.834C50.2699 16.946 50.3539 17.0393 50.4472 17.114C50.5406 17.1793 50.6852 17.2447 50.8812 17.31C51.0772 17.366 51.2406 17.408 51.3712 17.436C51.5112 17.4547 51.7072 17.4873 51.9592 17.534C52.2206 17.5713 52.4119 17.604 52.5332 17.632C52.6639 17.6507 52.8459 17.6927 53.0792 17.758C53.3219 17.814 53.5086 17.8747 53.6392 17.94C53.7699 18.0053 53.9192 18.0987 54.0872 18.22C54.2646 18.332 54.3952 18.4627 54.4792 18.612C54.5632 18.752 54.6379 18.9293 54.7032 19.144C54.7686 19.3493 54.8012 19.578 54.8012 19.83C54.8012 20.5393 54.5259 21.1087 53.9752 21.538C53.4339 21.958 52.7152 22.168 51.8192 22.168ZM59.655 22.168C58.9177 22.168 58.2457 22 57.639 21.664C57.0417 21.3187 56.5703 20.8427 56.225 20.236C55.889 19.6293 55.721 18.9573 55.721 18.22C55.721 17.0907 56.0943 16.1527 56.841 15.406C57.597 14.65 58.535 14.272 59.655 14.272C60.551 14.272 61.3257 14.5193 61.979 15.014C62.6417 15.5087 63.0897 16.1667 63.323 16.988H62.147C61.923 16.5027 61.587 16.12 61.139 15.84C60.7003 15.56 60.2057 15.42 59.655 15.42C58.8803 15.42 58.2317 15.6907 57.709 16.232C57.1957 16.764 56.939 17.4267 56.939 18.22C56.939 18.7427 57.0557 19.2187 57.289 19.648C57.5223 20.068 57.8443 20.404 58.255 20.656C58.675 20.8987 59.1417 21.02 59.655 21.02C60.2057 21.02 60.6957 20.88 61.125 20.6C61.5637 20.3107 61.8997 19.914 62.133 19.41H63.337C63.1037 20.25 62.651 20.922 61.979 21.426C61.3163 21.9207 60.5417 22.168 59.655 22.168ZM68.1266 22.168C67.38 22.168 66.6986 22 66.0826 21.664C65.4666 21.3187 64.986 20.8473 64.6406 20.25C64.2953 19.6433 64.1226 18.9667 64.1226 18.22C64.1226 17.0813 64.5006 16.1387 65.2566 15.392C66.022 14.6453 66.9786 14.272 68.1266 14.272C68.8826 14.272 69.564 14.4447 70.1706 14.79C70.7866 15.126 71.2673 15.5973 71.6126 16.204C71.9673 16.8013 72.1446 17.4733 72.1446 18.22C72.1446 19.3493 71.762 20.292 70.9966 21.048C70.2313 21.7947 69.2746 22.168 68.1266 22.168ZM66.1246 20.236C66.6566 20.7587 67.324 21.02 68.1266 21.02C68.9386 21.02 69.606 20.7587 70.1286 20.236C70.6606 19.704 70.9266 19.032 70.9266 18.22C70.9266 17.408 70.6606 16.7407 70.1286 16.218C69.606 15.686 68.9386 15.42 68.1266 15.42C67.324 15.42 66.6566 15.686 66.1246 16.218C65.602 16.7407 65.3406 17.408 65.3406 18.22C65.3406 19.032 65.602 19.704 66.1246 20.236ZM77.1171 14.398H77.7891V15.532H77.0191C76.3378 15.532 75.8058 15.742 75.4231 16.162C75.0498 16.5727 74.8631 17.1513 74.8631 17.898V22H73.6731V14.44H74.5131L74.7091 15.588C75.2598 14.7947 76.0625 14.398 77.1171 14.398ZM84.6511 11.738H85.8411V22H84.9311L84.7631 20.922C84.0164 21.7527 83.0504 22.168 81.8651 22.168C80.7264 22.168 79.7884 21.7947 79.0511 21.048C78.3231 20.292 77.9591 19.3493 77.9591 18.22C77.9591 17.0813 78.3231 16.1387 79.0511 15.392C79.7884 14.6453 80.7264 14.272 81.8651 14.272C82.9851 14.272 83.9138 14.6453 84.6511 15.392V11.738ZM79.9611 20.222C80.4838 20.754 81.1418 21.02 81.9351 21.02C82.7378 21.02 83.4051 20.754 83.9371 20.222C84.4691 19.6807 84.7351 19.0133 84.7351 18.22C84.7351 17.4173 84.4691 16.75 83.9371 16.218C83.4144 15.686 82.7518 15.42 81.9491 15.42C81.5571 15.42 81.1884 15.4947 80.8431 15.644C80.4978 15.784 80.2038 15.9753 79.9611 16.218C79.7184 16.4607 79.5271 16.7593 79.3871 17.114C79.2471 17.4593 79.1771 17.828 79.1771 18.22C79.1771 19.0227 79.4384 19.69 79.9611 20.222Z" fill="#373737"/>
<g clip-path="url(#clip0_9_607)">
<path d="M30 18C30 24.6274 24.6274 30 18 30C11.3726 30 6 24.6274 6 18C6 11.3726 11.3726 6 18 6C24.6274 6 30 11.3726 30 18Z" fill="#3A3A3A"/>
<path d="M23.6488 12.7573C22.6152 12.2924 21.496 11.955 20.3303 11.76C20.3201 11.7597 20.3099 11.7616 20.3005 11.7655C20.2911 11.7693 20.2827 11.7752 20.2759 11.7825C20.136 12.03 19.9728 12.3524 19.864 12.5998C18.6275 12.4199 17.3701 12.4199 16.1336 12.5998C16.0248 12.3449 15.8616 12.03 15.7139 11.7825C15.7062 11.7675 15.6828 11.76 15.6595 11.76C14.4938 11.955 13.3824 12.2924 12.341 12.7573C12.3333 12.7573 12.3255 12.7648 12.3177 12.7723C10.2038 15.824 9.62097 18.7932 9.90852 21.7324C9.90852 21.7474 9.91629 21.7624 9.93183 21.7699C11.3307 22.7597 12.6752 23.3595 14.0042 23.7569C14.0275 23.7644 14.0508 23.7569 14.0586 23.7419C14.3694 23.3295 14.6492 22.8946 14.8901 22.4372C14.9057 22.4072 14.8901 22.3773 14.8591 22.3698C14.4161 22.2048 13.9964 22.0099 13.5845 21.7849C13.5534 21.7699 13.5534 21.7249 13.5767 21.7024C13.6622 21.6424 13.7477 21.575 13.8332 21.515C13.8487 21.5 13.8721 21.5 13.8876 21.5075C16.561 22.6847 19.4443 22.6847 22.0867 21.5075C22.1022 21.5 22.1255 21.5 22.1411 21.515C22.2266 21.5825 22.3121 21.6424 22.3975 21.7099C22.4286 21.7324 22.4286 21.7774 22.3898 21.7924C21.9856 22.0248 21.5582 22.2123 21.1152 22.3773C21.0841 22.3848 21.0764 22.4222 21.0841 22.4447C21.3328 22.9021 21.6126 23.337 21.9157 23.7494C21.939 23.7569 21.9623 23.7644 21.9856 23.7569C23.3224 23.3595 24.6669 22.7597 26.0658 21.7699C26.0813 21.7624 26.0891 21.7474 26.0891 21.7324C26.431 18.3358 25.5217 15.3891 23.6799 12.7723C23.6721 12.7648 23.6643 12.7573 23.6488 12.7573ZM15.2943 19.9404C14.4938 19.9404 13.8254 19.2281 13.8254 18.3508C13.8254 17.4735 14.4782 16.7612 15.2943 16.7612C16.1181 16.7612 16.7709 17.481 16.7631 18.3508C16.7631 19.2281 16.1103 19.9404 15.2943 19.9404ZM20.7111 19.9404C19.9106 19.9404 19.2423 19.2281 19.2423 18.3508C19.2423 17.4735 19.8951 16.7612 20.7111 16.7612C21.5349 16.7612 22.1877 17.481 22.1799 18.3508C22.1799 19.2281 21.5349 19.9404 20.7111 19.9404Z" fill="#F2F2F2"/>
</g>
<defs>
<radialGradient id="paint0_radial_9_607" cx="0" cy="0" r="1" gradientUnits="userSpaceOnUse" gradientTransform="translate(3.15546e-06 36) rotate(-18.8588) scale(95.9047 34.6521)">
<stop offset="0.71871" stop-color="#F3F3F3"/>
<stop offset="1" stop-color="#B6B6B6"/>
</radialGradient>
<clipPath id="clip0_9_607">
<rect width="24" height="24" fill="white" transform="translate(6 6)"/>
</clipPath>
</defs>
</svg>
