<svg width="24" height="24" viewBox="0 0 24 24" fill="none" xmlns="http://www.w3.org/2000/svg">
<path d="M24 12C24 18.6274 18.6274 24 12 24C5.37258 24 0 18.6274 0 12C0 5.37258 5.37258 0 12 0C18.6274 0 24 5.37258 24 12Z" fill="#E5EBF4"/>
<path d="M17.6488 6.75727C16.6152 6.29239 15.496 5.95498 14.3303 5.76003C14.3201 5.75972 14.3099 5.76157 14.3005 5.76546C14.2911 5.76934 14.2827 5.77517 14.2759 5.78253C14.136 6.02996 13.9728 6.35238 13.864 6.59981C12.6275 6.41986 11.3701 6.41986 10.1336 6.59981C10.0248 6.34488 9.8616 6.02996 9.71393 5.78253C9.70616 5.76753 9.68285 5.76003 9.65953 5.76003C8.49379 5.95498 7.38244 6.29239 6.34104 6.75727C6.33327 6.75727 6.3255 6.76477 6.31773 6.77227C4.20384 9.82397 3.62097 12.7932 3.90852 15.7324C3.90852 15.7474 3.91629 15.7624 3.93183 15.7699C5.33073 16.7597 6.67522 17.3595 8.00417 17.7569C8.02749 17.7644 8.0508 17.7569 8.05857 17.7419C8.36944 17.3295 8.64922 16.8946 8.89014 16.4372C8.90568 16.4072 8.89014 16.3773 8.85905 16.3698C8.41607 16.2048 7.9964 16.0099 7.5845 15.7849C7.55342 15.7699 7.55342 15.7249 7.57673 15.7024C7.66222 15.6424 7.74771 15.575 7.8332 15.515C7.84874 15.5 7.87206 15.5 7.8876 15.5075C10.561 16.6847 13.4443 16.6847 16.0867 15.5075C16.1022 15.5 16.1255 15.5 16.1411 15.515C16.2266 15.5825 16.3121 15.6424 16.3975 15.7099C16.4286 15.7324 16.4286 15.7774 16.3898 15.7924C15.9856 16.0248 15.5582 16.2123 15.1152 16.3773C15.0841 16.3848 15.0764 16.4222 15.0841 16.4447C15.3328 16.9021 15.6126 17.337 15.9157 17.7494C15.939 17.7569 15.9623 17.7644 15.9856 17.7569C17.3224 17.3595 18.6669 16.7597 20.0658 15.7699C20.0813 15.7624 20.0891 15.7474 20.0891 15.7324C20.431 12.3358 19.5217 9.38908 17.6799 6.77227C17.6721 6.76477 17.6643 6.75727 17.6488 6.75727ZM9.29427 13.9404C8.49379 13.9404 7.82543 13.2281 7.82543 12.3508C7.82543 11.4735 8.47824 10.7612 9.29427 10.7612C10.1181 10.7612 10.7709 11.481 10.7631 12.3508C10.7631 13.2281 10.1103 13.9404 9.29427 13.9404ZM14.7111 13.9404C13.9106 13.9404 13.2423 13.2281 13.2423 12.3508C13.2423 11.4735 13.8951 10.7612 14.7111 10.7612C15.5349 10.7612 16.1877 11.481 16.1799 12.3508C16.1799 13.2281 15.5349 13.9404 14.7111 13.9404Z" fill="#23262F"/>
</svg>
