<svg width="110" height="36" viewBox="0 0 110 36" fill="none" xmlns="http://www.w3.org/2000/svg">
<rect width="110" height="36" rx="18" fill="url(#paint0_radial_6_928)"/>
<path d="M47.768 22H46.522L45.248 14.342L41.86 21.748H41.538L38.15 14.356L36.876 22H35.616L37.268 12.2H38.444L41.692 19.396L44.94 12.2H46.144L47.768 22ZM49.2664 13.124V11.766H50.5544V13.124H49.2664ZM49.3224 22V14.44H50.5124V22H49.3224ZM55.9565 22.168C55.2191 22.168 54.5471 22 53.9405 21.664C53.3431 21.3187 52.8718 20.8427 52.5265 20.236C52.1905 19.6293 52.0225 18.9573 52.0225 18.22C52.0225 17.0907 52.3958 16.1527 53.1425 15.406C53.8985 14.65 54.8365 14.272 55.9565 14.272C56.8525 14.272 57.6271 14.5193 58.2805 15.014C58.9431 15.5087 59.3911 16.1667 59.6245 16.988H58.4485C58.2245 16.5027 57.8885 16.12 57.4405 15.84C57.0018 15.56 56.5071 15.42 55.9565 15.42C55.1818 15.42 54.5331 15.6907 54.0105 16.232C53.4971 16.764 53.2405 17.4267 53.2405 18.22C53.2405 18.7427 53.3571 19.2187 53.5905 19.648C53.8238 20.068 54.1458 20.404 54.5565 20.656C54.9765 20.8987 55.4431 21.02 55.9565 21.02C56.5071 21.02 56.9971 20.88 57.4265 20.6C57.8651 20.3107 58.2011 19.914 58.4345 19.41H59.6385C59.4051 20.25 58.9525 20.922 58.2805 21.426C57.6178 21.9207 56.8431 22.168 55.9565 22.168ZM64.4701 14.398H65.1421V15.532H64.3721C63.6908 15.532 63.1588 15.742 62.7761 16.162C62.4028 16.5727 62.2161 17.1513 62.2161 17.898V22H61.0261V14.44H61.8661L62.0621 15.588C62.6128 14.7947 63.4154 14.398 64.4701 14.398ZM69.3161 22.168C68.5694 22.168 67.8881 22 67.2721 21.664C66.6561 21.3187 66.1754 20.8473 65.8301 20.25C65.4847 19.6433 65.3121 18.9667 65.3121 18.22C65.3121 17.0813 65.6901 16.1387 66.4461 15.392C67.2114 14.6453 68.1681 14.272 69.3161 14.272C70.0721 14.272 70.7534 14.4447 71.3601 14.79C71.9761 15.126 72.4567 15.5973 72.8021 16.204C73.1567 16.8013 73.3341 17.4733 73.3341 18.22C73.3341 19.3493 72.9514 20.292 72.1861 21.048C71.4207 21.7947 70.4641 22.168 69.3161 22.168ZM67.3141 20.236C67.8461 20.7587 68.5134 21.02 69.3161 21.02C70.1281 21.02 70.7954 20.7587 71.3181 20.236C71.8501 19.704 72.1161 19.032 72.1161 18.22C72.1161 17.408 71.8501 16.7407 71.3181 16.218C70.7954 15.686 70.1281 15.42 69.3161 15.42C68.5134 15.42 67.8461 15.686 67.3141 16.218C66.7914 16.7407 66.5301 17.408 66.5301 18.22C66.5301 19.032 66.7914 19.704 67.3141 20.236ZM77.2566 22.168C76.6593 22.168 76.1366 22.07 75.6886 21.874C75.2406 21.6687 74.8906 21.3793 74.6386 21.006C74.3866 20.6233 74.2513 20.18 74.2326 19.676H75.3946C75.4226 20.1147 75.6093 20.4553 75.9546 20.698C76.2999 20.9407 76.7433 21.062 77.2846 21.062C77.8166 21.062 78.2459 20.9593 78.5726 20.754C78.8993 20.5393 79.0626 20.25 79.0626 19.886C79.0626 19.746 79.0393 19.62 78.9926 19.508C78.9553 19.396 78.8853 19.298 78.7826 19.214C78.6799 19.13 78.5773 19.06 78.4746 19.004C78.3719 18.948 78.2319 18.8967 78.0546 18.85C77.8866 18.8033 77.7373 18.7707 77.6066 18.752C77.4853 18.724 77.3173 18.6913 77.1026 18.654C76.8599 18.6167 76.6733 18.584 76.5426 18.556C76.4119 18.528 76.2346 18.486 76.0106 18.43C75.7866 18.3647 75.6093 18.2993 75.4786 18.234C75.3479 18.1687 75.2033 18.08 75.0446 17.968C74.8859 17.856 74.7646 17.7347 74.6806 17.604C74.5966 17.4733 74.5219 17.31 74.4566 17.114C74.4006 16.918 74.3726 16.6987 74.3726 16.456C74.3726 16.1387 74.4379 15.8447 74.5686 15.574C74.7086 15.3033 74.8999 15.0747 75.1426 14.888C75.3946 14.692 75.6979 14.5427 76.0526 14.44C76.4073 14.328 76.7946 14.272 77.2146 14.272C78.0733 14.272 78.7593 14.482 79.2726 14.902C79.7859 15.322 80.0519 15.8913 80.0706 16.61H78.9506C78.9319 16.3393 78.8479 16.1107 78.6986 15.924C78.5586 15.728 78.3579 15.5833 78.0966 15.49C77.8446 15.3873 77.5459 15.336 77.2006 15.336C76.8553 15.336 76.5566 15.3827 76.3046 15.476C76.0526 15.56 75.8566 15.686 75.7166 15.854C75.5859 16.022 75.5206 16.2133 75.5206 16.428C75.5206 16.5773 75.5579 16.7127 75.6326 16.834C75.7073 16.946 75.7913 17.0393 75.8846 17.114C75.9779 17.1793 76.1226 17.2447 76.3186 17.31C76.5146 17.366 76.6779 17.408 76.8086 17.436C76.9486 17.4547 77.1446 17.4873 77.3966 17.534C77.6579 17.5713 77.8493 17.604 77.9706 17.632C78.1013 17.6507 78.2833 17.6927 78.5166 17.758C78.7593 17.814 78.9459 17.8747 79.0766 17.94C79.2073 18.0053 79.3566 18.0987 79.5246 18.22C79.7019 18.332 79.8326 18.4627 79.9166 18.612C80.0006 18.752 80.0753 18.9293 80.1406 19.144C80.2059 19.3493 80.2386 19.578 80.2386 19.83C80.2386 20.5393 79.9633 21.1087 79.4126 21.538C78.8713 21.958 78.1526 22.168 77.2566 22.168ZM85.1623 22.168C84.4157 22.168 83.7343 22 83.1183 21.664C82.5023 21.3187 82.0217 20.8473 81.6763 20.25C81.331 19.6433 81.1583 18.9667 81.1583 18.22C81.1583 17.0813 81.5363 16.1387 82.2923 15.392C83.0577 14.6453 84.0143 14.272 85.1623 14.272C85.9183 14.272 86.5997 14.4447 87.2063 14.79C87.8223 15.126 88.303 15.5973 88.6483 16.204C89.003 16.8013 89.1803 17.4733 89.1803 18.22C89.1803 19.3493 88.7977 20.292 88.0323 21.048C87.267 21.7947 86.3103 22.168 85.1623 22.168ZM83.1603 20.236C83.6923 20.7587 84.3597 21.02 85.1623 21.02C85.9743 21.02 86.6417 20.7587 87.1643 20.236C87.6963 19.704 87.9623 19.032 87.9623 18.22C87.9623 17.408 87.6963 16.7407 87.1643 16.218C86.6417 15.686 85.9743 15.42 85.1623 15.42C84.3597 15.42 83.6923 15.686 83.1603 16.218C82.6377 16.7407 82.3763 17.408 82.3763 18.22C82.3763 19.032 82.6377 19.704 83.1603 20.236ZM98.8038 20.894H99.7138V22H98.6638C97.8518 22 97.2078 21.7667 96.7318 21.3C96.2651 20.824 96.0318 20.18 96.0318 19.368V15.49H92.3078V22H91.1178V15.49H89.6338V14.496H91.1178V13.88C91.1178 13.0587 91.3091 12.452 91.6918 12.06C92.0838 11.668 92.6998 11.472 93.5398 11.472H94.6178V12.424H93.7638C93.2225 12.424 92.8351 12.536 92.6018 12.76C92.3778 12.984 92.2658 13.3667 92.2658 13.908V14.496H96.0318V12.27H97.2218V14.496H99.6858V15.49H97.2218V19.312C97.2218 19.648 97.2825 19.9373 97.4038 20.18C97.5251 20.4133 97.7025 20.5907 97.9358 20.712C98.1691 20.8333 98.4585 20.894 98.8038 20.894Z" fill="#373737"/>
<path fill-rule="evenodd" clip-rule="evenodd" d="M21.9475 7.58167C22.346 7.6864 22.673 7.99039 22.8058 8.37868C22.8901 8.61881 22.8876 8.97134 22.8033 9.19103C22.6474 9.59464 22.3409 9.8782 21.9475 9.98293C21.3089 10.149 20.6294 9.76324 20.4429 9.12972C20.3867 8.93557 20.3892 8.60859 20.4531 8.40934C20.6447 7.78347 21.3089 7.41562 21.9475 7.58167Z" fill="#3A3A3A"/>
<path fill-rule="evenodd" clip-rule="evenodd" d="M6 18C6 11.3726 11.3726 6 18 6C24.6274 6 30 11.3726 30 18C30 24.6274 24.6274 30 18 30C11.3726 30 6 24.6274 6 18ZM12 13.7043L12.0045 17.7946L16.9062 17.7667L16.904 13.0364L12 13.7043ZM12.0035 18.28L16.9017 18.3117L16.9055 23.0462L12.0038 22.3723L12.0035 18.28ZM17.4962 12.949V17.7582L23.9985 17.7065V12L17.4962 12.949ZM17.4873 18.3456L24.0003 18.3562L23.9987 24.0371L17.4964 23.1193L17.4873 18.3456Z" fill="#3A3A3A"/>
<defs>
<radialGradient id="paint0_radial_6_928" cx="0" cy="0" r="1" gradientUnits="userSpaceOnUse" gradientTransform="translate(3.61564e-06 36) rotate(-16.5994) scale(108.514 35.0918)">
<stop offset="0.71871" stop-color="#F3F3F3"/>
<stop offset="1" stop-color="#B6B6B6"/>
</radialGradient>
</defs>
</svg>
