<svg width="24" height="24" viewBox="0 0 24 24" fill="none" xmlns="http://www.w3.org/2000/svg">
<path fill-rule="evenodd" clip-rule="evenodd" d="M0 12C0 5.37258 5.37258 0 12 0C18.6274 0 24 5.37258 24 12C24 18.6274 18.6274 24 12 24C5.37258 24 0 18.6274 0 12ZM6 7.70425L6.00448 11.7946L10.9062 11.7667L10.904 7.03638L6 7.70425ZM6.00354 12.28L10.9017 12.3117L10.9055 17.0462L6.00381 16.3723L6.00354 12.28ZM11.4962 6.94901V11.7582L17.9985 11.7065V6L11.4962 6.94901ZM11.4873 12.3456L18.0003 12.3562L17.9987 18.0371L11.4964 17.1193L11.4873 12.3456Z" fill="#E5EBF4"/>
</svg>
