<svg width="107" height="36" viewBox="0 0 107 36" fill="none" xmlns="http://www.w3.org/2000/svg">
<rect width="107" height="36" rx="18" fill="url(#paint0_radial_6_603)"/>
<path d="M42.952 12.2H44.156V22H43.12L37.534 14.356V22H36.344V12.2H37.45L42.952 19.76V12.2ZM46.3543 13.124V11.766H47.6423V13.124H46.3543ZM46.4103 22V14.44H47.6003V22H46.4103ZM53.4924 14.272C54.379 14.272 55.0837 14.5707 55.6064 15.168C56.1384 15.7653 56.4044 16.5353 56.4044 17.478V22H55.2144V17.758C55.2144 17.2447 55.135 16.8107 54.9764 16.456C54.827 16.1013 54.5984 15.8307 54.2904 15.644C53.9917 15.4573 53.623 15.364 53.1844 15.364C52.5404 15.364 51.999 15.6067 51.5604 16.092C51.1217 16.568 50.9024 17.1607 50.9024 17.87V22H49.7124V14.44H50.5524L50.7904 15.63C50.977 15.3407 51.2057 15.098 51.4764 14.902C51.747 14.6967 52.055 14.5427 52.4004 14.44C52.7457 14.328 53.1097 14.272 53.4924 14.272ZM61.4684 20.894H62.2944V22H61.3144C60.5024 22 59.8631 21.7667 59.3964 21.3C58.9298 20.824 58.6964 20.1753 58.6964 19.354V15.518H57.3664V15.308L59.7044 12.844H59.8864V14.44H62.2524V15.518H59.8864V19.312C59.8864 19.6573 59.9471 19.9467 60.0684 20.18C60.1898 20.4133 60.3671 20.5907 60.6004 20.712C60.8431 20.8333 61.1324 20.894 61.4684 20.894ZM70.5915 18.248C70.5915 18.3507 70.5822 18.4953 70.5635 18.682H64.1095C64.2028 19.382 64.4922 19.9467 64.9775 20.376C65.4628 20.796 66.0602 21.006 66.7695 21.006C67.2922 21.006 67.7542 20.894 68.1555 20.67C68.5662 20.4367 68.8928 20.11 69.1355 19.69H70.3815C70.0642 20.474 69.5882 21.0853 68.9535 21.524C68.3188 21.9533 67.5908 22.168 66.7695 22.168C65.6775 22.168 64.7628 21.79 64.0255 21.034C63.2882 20.278 62.9195 19.34 62.9195 18.22C62.9195 17.0907 63.2882 16.1527 64.0255 15.406C64.7628 14.65 65.6775 14.272 66.7695 14.272C67.8988 14.272 68.8182 14.6547 69.5275 15.42C70.2368 16.1853 70.5915 17.128 70.5915 18.248ZM66.7695 15.406C66.3215 15.406 65.9108 15.4947 65.5375 15.672C65.1735 15.8493 64.8702 16.106 64.6275 16.442C64.3848 16.7687 64.2215 17.1467 64.1375 17.576H69.3875C69.3035 17.1373 69.1402 16.7547 68.8975 16.428C68.6548 16.092 68.3515 15.84 67.9875 15.672C67.6235 15.4947 67.2175 15.406 66.7695 15.406ZM75.8672 14.272C76.7539 14.272 77.4585 14.5707 77.9812 15.168C78.5132 15.7653 78.7792 16.5353 78.7792 17.478V22H77.5892V17.758C77.5892 17.2447 77.5099 16.8107 77.3512 16.456C77.2019 16.1013 76.9732 15.8307 76.6652 15.644C76.3665 15.4573 75.9979 15.364 75.5592 15.364C74.9152 15.364 74.3739 15.6067 73.9352 16.092C73.4965 16.568 73.2772 17.1607 73.2772 17.87V22H72.0872V14.44H72.9272L73.1652 15.63C73.3519 15.3407 73.5805 15.098 73.8512 14.902C74.1219 14.6967 74.4299 14.5427 74.7752 14.44C75.1205 14.328 75.4845 14.272 75.8672 14.272ZM86.8796 11.738H88.0696V22H87.1596L86.9916 20.922C86.245 21.7527 85.279 22.168 84.0936 22.168C82.955 22.168 82.017 21.7947 81.2796 21.048C80.5516 20.292 80.1876 19.3493 80.1876 18.22C80.1876 17.0813 80.5516 16.1387 81.2796 15.392C82.017 14.6453 82.955 14.272 84.0936 14.272C85.2136 14.272 86.1423 14.6453 86.8796 15.392V11.738ZM82.1896 20.222C82.7123 20.754 83.3703 21.02 84.1636 21.02C84.9663 21.02 85.6336 20.754 86.1656 20.222C86.6976 19.6807 86.9636 19.0133 86.9636 18.22C86.9636 17.4173 86.6976 16.75 86.1656 16.218C85.643 15.686 84.9803 15.42 84.1776 15.42C83.7856 15.42 83.417 15.4947 83.0716 15.644C82.7263 15.784 82.4323 15.9753 82.1896 16.218C81.947 16.4607 81.7556 16.7593 81.6156 17.114C81.4756 17.4593 81.4056 17.828 81.4056 18.22C81.4056 19.0227 81.667 19.69 82.1896 20.222ZM93.605 22.168C92.8583 22.168 92.177 22 91.561 21.664C90.945 21.3187 90.4643 20.8473 90.119 20.25C89.7737 19.6433 89.601 18.9667 89.601 18.22C89.601 17.0813 89.979 16.1387 90.735 15.392C91.5003 14.6453 92.457 14.272 93.605 14.272C94.361 14.272 95.0423 14.4447 95.649 14.79C96.265 15.126 96.7457 15.5973 97.091 16.204C97.4457 16.8013 97.623 17.4733 97.623 18.22C97.623 19.3493 97.2403 20.292 96.475 21.048C95.7097 21.7947 94.753 22.168 93.605 22.168ZM91.603 20.236C92.135 20.7587 92.8023 21.02 93.605 21.02C94.417 21.02 95.0843 20.7587 95.607 20.236C96.139 19.704 96.405 19.032 96.405 18.22C96.405 17.408 96.139 16.7407 95.607 16.218C95.0843 15.686 94.417 15.42 93.605 15.42C92.8023 15.42 92.135 15.686 91.603 16.218C91.0803 16.7407 90.819 17.408 90.819 18.22C90.819 19.032 91.0803 19.704 91.603 20.236Z" fill="#373737"/>
<path fill-rule="evenodd" clip-rule="evenodd" d="M6 18C6 11.3726 11.3726 6 18 6C24.6274 6 30 11.3726 30 18C30 24.6274 24.6274 30 18 30C11.3726 30 6 24.6274 6 18ZM14.6413 12.0409C13.4126 12.2606 12.424 13.17 12.1123 14.3655C11.9999 14.7972 11.9923 15.0501 12.0051 18.3991C12.0127 21.4748 12.0153 21.5463 12.0664 21.7839C12.3499 23.0637 13.2593 23.9757 14.5519 24.2771C14.7205 24.3154 14.9351 24.3231 16.3171 24.3308C17.7477 24.341 17.8958 24.3384 17.9341 24.3001C17.9725 24.2618 17.975 23.7688 17.975 18.1794C17.975 14.036 17.9674 12.0843 17.9495 12.0485C17.9239 12.0026 17.8805 12 16.3835 12.0026C15.1676 12.0051 14.8023 12.0128 14.6413 12.0409ZM19.2013 18.1718C19.2013 14.7947 19.209 12.0255 19.2192 12.0179C19.2268 12.0077 19.7377 12 20.3508 12C21.2398 12 21.5157 12.0077 21.6945 12.0383C23.028 12.2682 24.0421 13.2722 24.295 14.6031C24.3308 14.7896 24.3359 15.2264 24.3359 18.1564C24.3359 21.2866 24.3396 21.6548 24.2409 21.9931C24.2239 22.0516 24.2038 22.1091 24.1801 22.1798C24.1367 22.305 24.0524 22.5068 23.9885 22.6269C23.4904 23.5644 22.5758 24.1954 21.5387 24.3129C21.2935 24.3384 19.3111 24.3486 19.2422 24.3231C19.2038 24.3078 19.2013 23.7432 19.2013 18.1718Z" fill="#3A3A3A"/>
<path fill-rule="evenodd" clip-rule="evenodd" d="M21.9475 17.5817C22.346 17.6864 22.673 17.9904 22.8058 18.3787C22.8901 18.6188 22.8876 18.9713 22.8033 19.191C22.6474 19.5946 22.3409 19.8782 21.9475 19.9829C21.3089 20.149 20.6294 19.7632 20.4429 19.1297C20.3867 18.9356 20.3892 18.6086 20.4531 18.4093C20.6447 17.7835 21.3089 17.4156 21.9475 17.5817Z" fill="#3A3A3A"/>
<path fill-rule="evenodd" clip-rule="evenodd" d="M16.9533 23.3473V18.1718V12.9963L15.9647 12.9988C14.8713 13.0014 14.7155 13.0167 14.3783 13.1521C13.7065 13.4203 13.2083 14.0155 13.0551 14.7334C13.0014 14.9863 13.0014 21.342 13.0576 21.6C13.2288 22.4251 13.8393 23.0586 14.6619 23.2706C14.8535 23.3192 14.9556 23.3243 15.9136 23.3345L16.9533 23.3473ZM14.3247 14.8253C14.455 14.7104 14.7002 14.5877 14.8611 14.5571C15.5049 14.4294 16.1282 14.8687 16.238 15.5253C16.3326 16.077 15.9979 16.6161 15.4436 16.8025C15.3082 16.8485 15.2367 16.8562 15.0349 16.8485C14.8126 16.8409 14.7692 16.8306 14.598 16.7463C14.3502 16.6237 14.1689 16.4423 14.0488 16.1946C13.9671 16.0311 13.9543 15.9774 13.9441 15.7756C13.9236 15.3873 14.0565 15.0578 14.3247 14.8253Z" fill="#3A3A3A"/>
<defs>
<radialGradient id="paint0_radial_6_603" cx="0" cy="0" r="1" gradientUnits="userSpaceOnUse" gradientTransform="translate(3.51703e-06 36) rotate(-17.0382) scale(105.799 35.0107)">
<stop offset="0.71871" stop-color="#F3F3F3"/>
<stop offset="1" stop-color="#B6B6B6"/>
</radialGradient>
</defs>
</svg>
