<svg width="24" height="24" viewBox="0 0 24 24" fill="none" xmlns="http://www.w3.org/2000/svg">
<path fill-rule="evenodd" clip-rule="evenodd" d="M0 12C0 5.37258 5.37258 0 12 0C18.6274 0 24 5.37258 24 12C24 18.6274 18.6274 24 12 24C5.37258 24 0 18.6274 0 12ZM8.64134 6.04087C7.41261 6.26056 6.424 7.16998 6.11235 8.3655C5.99995 8.79722 5.99228 9.05012 6.00505 12.3991C6.01272 15.4748 6.01527 15.5463 6.06636 15.7839C6.34992 17.0637 7.25933 17.9757 8.55193 18.2771C8.72053 18.3154 8.93511 18.3231 10.3171 18.3308C11.7477 18.341 11.8958 18.3384 11.9341 18.3001C11.9725 18.2618 11.975 17.7688 11.975 12.1794C11.975 8.03597 11.9674 6.0843 11.9495 6.04854C11.9239 6.00255 11.8805 6 10.3835 6.00255C9.16757 6.00511 8.80228 6.01277 8.64134 6.04087ZM13.2013 12.1718C13.2013 8.79467 13.209 6.02555 13.2192 6.01788C13.2268 6.00766 13.7377 6 14.3508 6C15.2398 6 15.5157 6.00766 15.6945 6.03832C17.028 6.26823 18.0421 7.27216 18.295 8.60308C18.3308 8.78956 18.3359 9.22638 18.3359 12.1564C18.3359 15.2866 18.3396 15.6548 18.2409 15.9931C18.2239 16.0516 18.2038 16.1091 18.1801 16.1798C18.1367 16.305 18.0524 16.5068 17.9885 16.6269C17.4904 17.5644 16.5758 18.1954 15.5387 18.3129C15.2935 18.3384 13.3111 18.3486 13.2422 18.3231C13.2038 18.3078 13.2013 17.7432 13.2013 12.1718Z" fill="#E5EBF4"/>
<path fill-rule="evenodd" clip-rule="evenodd" d="M15.9475 11.5817C16.346 11.6864 16.673 11.9904 16.8058 12.3787C16.8901 12.6188 16.8876 12.9713 16.8033 13.191C16.6474 13.5946 16.3409 13.8782 15.9475 13.9829C15.3089 14.149 14.6294 13.7632 14.4429 13.1297C14.3867 12.9356 14.3892 12.6086 14.4531 12.4093C14.6447 11.7835 15.3089 11.4156 15.9475 11.5817Z" fill="#E5EBF4"/>
<path fill-rule="evenodd" clip-rule="evenodd" d="M10.9533 17.3473V12.1718V6.99628L9.96468 6.99883C8.87133 7.00139 8.71551 7.01671 8.37831 7.1521C7.70646 7.42033 7.20833 8.01554 7.05506 8.73336C7.00141 8.98626 7.00141 15.342 7.05761 15.6C7.22877 16.4251 7.8393 17.0586 8.66186 17.2706C8.85345 17.3192 8.95563 17.3243 9.91359 17.3345L10.9533 17.3473ZM8.32469 8.82533C8.45497 8.71037 8.70021 8.58776 8.86115 8.5571C9.50489 8.42937 10.1282 8.86875 10.238 9.52527C10.3326 10.0771 9.99792 10.6161 9.44358 10.8025C9.30819 10.8485 9.23666 10.8562 9.03485 10.8485C8.81261 10.8409 8.76918 10.8306 8.59803 10.7463C8.35024 10.6237 8.16887 10.4424 8.0488 10.1946C7.96706 10.0311 7.95428 9.97743 7.94407 9.77562C7.92363 9.38733 8.05647 9.05779 8.32469 8.82533Z" fill="#E5EBF4"/>
</svg>
