<svg width="24" height="24" viewBox="0 0 24 24" fill="none" xmlns="http://www.w3.org/2000/svg">
<path fill-rule="evenodd" clip-rule="evenodd" d="M12 0C5.37258 0 0 5.37258 0 12C0 18.6274 5.37258 24 12 24C18.6274 24 24 18.6274 24 12C24 5.37258 18.6274 0 12 0ZM10.4 16.8497V6.4C11.3476 6.58586 12.729 7.02754 13.4714 7.29281C15.3601 7.98001 16 8.83504 16 10.7619C16 12.6415 14.9059 13.3527 13.5167 12.6419V9.14152C13.5167 8.73117 13.4455 8.35259 13.0808 8.24571C12.8039 8.15042 12.6303 8.4247 12.6303 8.83504V17.6L10.4 16.8497ZM13.2 16.274V17.6L18.1409 15.802C18.1409 15.802 18.8051 15.5545 19.0768 15.208C19.3473 14.8616 19.227 14.3587 18.1602 14.0164C17.2145 13.6529 16.0089 13.5286 15.0246 13.6388C14.0398 13.749 13.3396 13.9998 13.3396 13.9998L13.2 14.0472V15.4239L15.6222 14.5596C16.0348 14.4099 16.6418 14.3775 16.9772 14.4889C17.3117 14.6 17.2477 14.8113 16.8364 14.9606L13.2 16.274ZM9.75561 15.901C8.53006 16.0921 7.22589 16.0128 5.9415 15.6082C4.74245 15.2862 4.54254 14.6158 5.08792 14.2296C5.59423 13.8725 6.45184 13.6028 6.45184 13.6028L10 12.4V13.7709L7.44737 14.6432C6.99543 14.7984 6.9267 15.0157 7.29283 15.1306C7.65987 15.2455 8.32386 15.2129 8.77535 15.0578L10 14.6347V15.8615C9.94835 15.8706 9.89298 15.8793 9.83841 15.8878C9.81039 15.8922 9.78259 15.8966 9.75561 15.901Z" fill="#E8EDF4"/>
</svg>
