<svg width="119" height="36" viewBox="0 0 119 36" fill="none" xmlns="http://www.w3.org/2000/svg">
<rect width="119" height="36" rx="18" fill="url(#paint0_radial_6_534)"/>
<path fill-rule="evenodd" clip-rule="evenodd" d="M18 6C11.3726 6 6 11.3726 6 18C6 24.6274 11.3726 30 18 30C24.6274 30 30 24.6274 30 18C30 11.3726 24.6274 6 18 6ZM16.4 22.8497V12.4C17.3476 12.5859 18.729 13.0275 19.4714 13.2928C21.3601 13.98 22 14.835 22 16.7619C22 18.6415 20.9059 19.3527 19.5167 18.6419V15.1415C19.5167 14.7312 19.4455 14.3526 19.0808 14.2457C18.8039 14.1504 18.6303 14.4247 18.6303 14.835V23.6L16.4 22.8497ZM19.2 22.274V23.6L24.1409 21.802C24.1409 21.802 24.8051 21.5545 25.0768 21.208C25.3473 20.8616 25.227 20.3587 24.1602 20.0164C23.2145 19.6529 22.0089 19.5286 21.0246 19.6388C20.0398 19.749 19.3396 19.9998 19.3396 19.9998L19.2 20.0472V21.4239L21.6222 20.5596C22.0348 20.4099 22.6418 20.3775 22.9772 20.4889C23.3117 20.6 23.2477 20.8113 22.8364 20.9606L19.2 22.274ZM15.7556 21.901C14.5301 22.0921 13.2259 22.0128 11.9415 21.6082C10.7425 21.2862 10.5425 20.6158 11.0879 20.2296C11.5942 19.8725 12.4518 19.6028 12.4518 19.6028L16 18.4V19.7709L13.4474 20.6432C12.9954 20.7984 12.9267 21.0157 13.2928 21.1306C13.6599 21.2455 14.3239 21.2129 14.7754 21.0578L16 20.6347V21.8615C15.9484 21.8706 15.893 21.8793 15.8384 21.8878C15.8104 21.8922 15.7826 21.8966 15.7556 21.901Z" fill="#373737"/>
<path d="M39.858 12.2C40.782 12.2 41.552 12.4987 42.168 13.096C42.7933 13.6933 43.106 14.44 43.106 15.336C43.106 16.232 42.7933 16.9787 42.168 17.576C41.552 18.1733 40.782 18.472 39.858 18.472H37.562V22H36.344V12.2H39.858ZM39.788 17.282C40.3853 17.282 40.8753 17.1 41.258 16.736C41.65 16.3627 41.846 15.896 41.846 15.336C41.846 14.776 41.65 14.314 41.258 13.95C40.8753 13.5767 40.3853 13.39 39.788 13.39H37.562V17.282H39.788ZM44.4689 22V11.738H45.6589V22H44.4689ZM54.211 14.44H55.163V22H54.169L54.043 20.852C53.6883 21.272 53.2543 21.5987 52.741 21.832C52.237 22.056 51.6816 22.168 51.075 22.168C49.9643 22.168 49.0356 21.7947 48.289 21.048C47.5423 20.292 47.169 19.3493 47.169 18.22C47.169 17.0907 47.5423 16.1527 48.289 15.406C49.0356 14.65 49.9643 14.272 51.075 14.272C51.691 14.272 52.251 14.3887 52.755 14.622C53.2683 14.8553 53.7023 15.182 54.057 15.602L54.211 14.44ZM49.171 20.222C49.703 20.754 50.3703 21.02 51.173 21.02C51.9756 21.02 52.6383 20.754 53.161 20.222C53.6836 19.69 53.945 19.0227 53.945 18.22C53.945 17.4173 53.6836 16.75 53.161 16.218C52.6383 15.686 51.9756 15.42 51.173 15.42C50.3703 15.42 49.703 15.6907 49.171 16.232C48.6483 16.764 48.387 17.4267 48.387 18.22C48.387 19.0133 48.6483 19.6807 49.171 20.222ZM62.796 14.44H64.07L60.472 22.308C60.192 22.924 59.9167 23.4 59.646 23.736C59.3753 24.072 59.072 24.3147 58.736 24.464C58.4 24.6227 57.9893 24.702 57.504 24.702H56.79V23.624H57.406C57.91 23.624 58.288 23.5213 58.54 23.316C58.792 23.1107 59.072 22.6907 59.38 22.056L59.646 21.482L56.286 14.44H57.588L60.276 20.166L62.796 14.44ZM75.2184 20.894H76.0444V22H75.0644C74.5324 22 74.0657 21.8973 73.6644 21.692C73.2724 21.4773 72.9691 21.1693 72.7544 20.768C72.5491 20.3667 72.4464 19.8953 72.4464 19.354V15.518H71.1164V15.308L73.4544 12.844H73.6364V14.44H76.0024V15.518H73.6364V19.312C73.6364 19.6573 73.6971 19.9467 73.8184 20.18C73.9397 20.4133 74.1171 20.5907 74.3504 20.712C74.5931 20.8333 74.8824 20.894 75.2184 20.894ZM67.5184 17.534C67.7797 17.5713 67.9711 17.604 68.0924 17.632C68.2231 17.6507 68.4051 17.6927 68.6384 17.758C68.8811 17.814 69.0677 17.8747 69.1984 17.94C69.3291 18.0053 69.4784 18.0987 69.6464 18.22C69.8237 18.332 69.9544 18.4627 70.0384 18.612C70.1224 18.752 70.1971 18.9293 70.2624 19.144C70.3277 19.3493 70.3604 19.578 70.3604 19.83C70.3604 20.5393 70.0851 21.1087 69.5344 21.538C68.9931 21.958 68.2744 22.168 67.3784 22.168C66.7811 22.168 66.2584 22.07 65.8104 21.874C65.3624 21.6687 65.0124 21.3793 64.7604 21.006C64.5084 20.6233 64.3731 20.18 64.3544 19.676H65.5164C65.5444 20.124 65.7311 20.4693 66.0764 20.712C66.4217 20.9453 66.8651 21.062 67.4064 21.062C67.9384 21.062 68.3677 20.9593 68.6944 20.754C69.0211 20.5393 69.1844 20.25 69.1844 19.886C69.1844 19.718 69.1471 19.5687 69.0724 19.438C68.9977 19.3073 68.9091 19.2047 68.8064 19.13C68.7037 19.046 68.5497 18.9713 68.3444 18.906C68.1484 18.8407 67.9757 18.794 67.8264 18.766C67.6864 18.738 67.4857 18.7007 67.2244 18.654C67.0564 18.626 66.9257 18.6027 66.8324 18.584C66.7391 18.5653 66.6131 18.542 66.4544 18.514C66.2957 18.4767 66.1651 18.444 66.0624 18.416C65.9691 18.3787 65.8524 18.3367 65.7124 18.29C65.5724 18.234 65.4604 18.178 65.3764 18.122C65.2924 18.0567 65.1944 17.9867 65.0824 17.912C64.9797 17.828 64.8957 17.7393 64.8304 17.646C64.7744 17.5527 64.7137 17.45 64.6484 17.338C64.5924 17.2167 64.5504 17.0813 64.5224 16.932C64.5037 16.7827 64.4944 16.6287 64.4944 16.47C64.4944 15.8167 64.7557 15.2893 65.2784 14.888C65.8011 14.4773 66.4871 14.272 67.3364 14.272C68.1951 14.272 68.8811 14.4867 69.3944 14.916C69.9077 15.336 70.1737 15.9007 70.1924 16.61H69.0724C69.0444 16.1993 68.8764 15.8867 68.5684 15.672C68.2697 15.448 67.8544 15.336 67.3224 15.336C66.8091 15.336 66.3984 15.4387 66.0904 15.644C65.7917 15.84 65.6424 16.1013 65.6424 16.428C65.6424 16.5773 65.6797 16.7127 65.7544 16.834C65.8291 16.946 65.9131 17.0393 66.0064 17.114C66.0997 17.1793 66.2444 17.2447 66.4404 17.31C66.6364 17.366 66.7997 17.408 66.9304 17.436C67.0704 17.4547 67.2664 17.4873 67.5184 17.534ZM83.9823 14.44H84.9343V22H83.9403L83.8143 20.852C83.4596 21.272 83.0256 21.5987 82.5123 21.832C82.0083 22.056 81.4529 22.168 80.8463 22.168C79.7356 22.168 78.8069 21.7947 78.0603 21.048C77.3136 20.292 76.9403 19.3493 76.9403 18.22C76.9403 17.0907 77.3136 16.1527 78.0603 15.406C78.8069 14.65 79.7356 14.272 80.8463 14.272C81.4623 14.272 82.0223 14.3887 82.5263 14.622C83.0396 14.8553 83.4736 15.182 83.8283 15.602L83.9823 14.44ZM78.9423 20.222C79.4743 20.754 80.1416 21.02 80.9443 21.02C81.7469 21.02 82.4096 20.754 82.9323 20.222C83.4549 19.69 83.7163 19.0227 83.7163 18.22C83.7163 17.4173 83.4549 16.75 82.9323 16.218C82.4096 15.686 81.7469 15.42 80.9443 15.42C80.1416 15.42 79.4743 15.6907 78.9423 16.232C78.4196 16.764 78.1583 17.4267 78.1583 18.22C78.1583 19.0133 78.4196 19.6807 78.9423 20.222ZM90.1733 20.894H90.9993V22H90.0193C89.2073 22 88.568 21.7667 88.1013 21.3C87.6347 20.824 87.4013 20.1753 87.4013 19.354V15.518H86.0713V15.308L88.4093 12.844H88.5913V14.44H90.9573V15.518H88.5913V19.312C88.5913 19.6573 88.652 19.9467 88.7733 20.18C88.8947 20.4133 89.072 20.5907 89.3053 20.712C89.548 20.8333 89.8373 20.894 90.1733 20.894ZM92.2661 13.124V11.766H93.5541V13.124H92.2661ZM92.3221 22V14.44H93.5121V22H92.3221ZM99.0262 22.168C98.2795 22.168 97.5982 22 96.9822 21.664C96.3662 21.3187 95.8855 20.8473 95.5402 20.25C95.1948 19.6433 95.0222 18.9667 95.0222 18.22C95.0222 17.0813 95.4002 16.1387 96.1562 15.392C96.9215 14.6453 97.8782 14.272 99.0262 14.272C99.7822 14.272 100.463 14.4447 101.07 14.79C101.686 15.126 102.167 15.5973 102.512 16.204C102.867 16.8013 103.044 17.4733 103.044 18.22C103.044 19.3493 102.661 20.292 101.896 21.048C101.131 21.7947 100.174 22.168 99.0262 22.168ZM97.0242 20.236C97.5562 20.7587 98.2235 21.02 99.0262 21.02C99.8382 21.02 100.505 20.7587 101.028 20.236C101.56 19.704 101.826 19.032 101.826 18.22C101.826 17.408 101.56 16.7407 101.028 16.218C100.505 15.686 99.8382 15.42 99.0262 15.42C98.2235 15.42 97.5562 15.686 97.0242 16.218C96.5015 16.7407 96.2402 17.408 96.2402 18.22C96.2402 19.032 96.5015 19.704 97.0242 20.236ZM108.353 14.272C109.239 14.272 109.944 14.5707 110.467 15.168C110.999 15.7653 111.265 16.5353 111.265 17.478V22H110.075V17.758C110.075 17.2447 109.995 16.8107 109.837 16.456C109.687 16.1013 109.459 15.8307 109.151 15.644C108.852 15.4573 108.483 15.364 108.045 15.364C107.401 15.364 106.859 15.6067 106.421 16.092C105.982 16.568 105.763 17.1607 105.763 17.87V22H104.573V14.44H105.413L105.651 15.63C105.837 15.3407 106.066 15.098 106.337 14.902C106.607 14.6967 106.915 14.5427 107.261 14.44C107.606 14.328 107.97 14.272 108.353 14.272Z" fill="#373737"/>
<defs>
<radialGradient id="paint0_radial_6_534" cx="0" cy="0" r="1" gradientUnits="userSpaceOnUse" gradientTransform="translate(3.91146e-06 36) rotate(-15.4058) scale(116.693 35.3021)">
<stop offset="0.71871" stop-color="#F3F3F3"/>
<stop offset="1" stop-color="#B6B6B6"/>
</radialGradient>
</defs>
</svg>
