<svg width="91" height="36" viewBox="0 0 91 36" fill="none" xmlns="http://www.w3.org/2000/svg">
<rect width="91" height="36" rx="18" fill="url(#paint0_radial_6_650)"/>
<path d="M6.49333 21.8293L11.0263 23.7128C11.2543 24.7386 11.9531 25.6385 12.9841 26.0713C14.671 26.7811 16.616 25.9722 17.3177 24.2727C17.5003 23.8285 17.5855 23.3625 17.5732 22.8977L21.7578 19.8862C21.7917 19.8872 21.8265 19.8882 21.8604 19.8882C24.3646 19.8882 26.4 17.8324 26.4 15.3077C26.4 12.7828 24.3646 10.7288 21.8604 10.7288C19.3572 10.7288 17.3208 12.7828 17.3208 15.3077C17.3208 15.3279 17.3208 15.3482 17.3218 15.3672L14.3972 19.6455C13.9234 19.6238 13.448 19.7074 12.9973 19.8944C12.7985 19.976 12.6123 20.0763 12.4376 20.192L6.0156 17.5297C6.01561 17.5297 6.01508 17.5385 6.01422 17.5554C6.00949 17.5475 6.00476 17.5395 6 17.5315C6.41143 11.276 11.6207 6.32877 17.9871 6.32877C24.6215 6.32877 30 11.7014 30 18.3288C30 24.9561 24.6215 30.3288 17.9871 30.3288C12.5715 30.3288 7.99283 26.7494 6.49333 21.8293Z" fill="#373737"/>
<path d="M16.6192 23.9772C16.0761 25.2903 14.5777 25.9133 13.2752 25.3668C12.6743 25.1147 12.2207 24.6529 11.959 24.1022L13.4368 24.719C14.3973 25.1219 15.4994 24.6632 15.8986 23.6962C16.2991 22.7282 15.8448 21.6166 14.8847 21.2137L13.3571 20.5763C13.9466 20.3511 14.6167 20.3428 15.2428 20.6052C15.874 20.8697 16.3638 21.3676 16.6233 22.004C16.8829 22.6404 16.8819 23.3429 16.6192 23.9772Z" fill="#373737"/>
<path fill-rule="evenodd" clip-rule="evenodd" d="M18.8359 15.3077C18.8359 16.9904 20.1932 18.3592 21.8603 18.3592C23.5284 18.3592 24.8857 16.9904 24.8857 15.3077C24.8857 13.6263 23.5284 12.257 21.8603 12.257C20.1932 12.257 18.8359 13.6263 18.8359 15.3077ZM21.8654 17.5948C20.6118 17.5948 19.5941 16.569 19.5941 15.303C19.5941 14.0372 20.6118 13.0105 21.8654 13.0105C23.1201 13.0105 24.1378 14.0372 24.1378 15.303C24.1378 16.569 23.1201 17.5948 21.8654 17.5948Z" fill="#373737"/>
<path d="M41.256 23.126C40.1733 23.126 39.3007 22.8413 38.638 22.272C37.9753 21.7027 37.644 20.9373 37.644 19.976H38.89C38.89 20.5733 39.1093 21.0493 39.548 21.404C39.9867 21.7493 40.5513 21.922 41.242 21.922C41.6527 21.922 42.0213 21.8567 42.348 21.726C42.684 21.586 42.95 21.3853 43.146 21.124C43.3513 20.8627 43.454 20.564 43.454 20.228C43.454 20.0693 43.426 19.9247 43.37 19.794C43.3233 19.654 43.2627 19.5373 43.188 19.444C43.1227 19.3507 43.02 19.262 42.88 19.178C42.74 19.0847 42.6187 19.0147 42.516 18.968C42.4133 18.912 42.2547 18.8513 42.04 18.786C41.8347 18.7207 41.6713 18.674 41.55 18.646C41.438 18.618 41.2607 18.576 41.018 18.52C40.7287 18.4453 40.5047 18.3893 40.346 18.352C40.1967 18.3147 39.9913 18.254 39.73 18.17C39.4687 18.0767 39.2633 17.9927 39.114 17.918C38.974 17.834 38.806 17.722 38.61 17.582C38.4233 17.442 38.2787 17.2927 38.176 17.134C38.0827 16.9753 37.9987 16.784 37.924 16.56C37.8587 16.3267 37.826 16.0747 37.826 15.804C37.826 14.964 38.1247 14.3013 38.722 13.816C39.3287 13.3213 40.1407 13.074 41.158 13.074C42.1753 13.074 42.9733 13.3353 43.552 13.858C44.14 14.3807 44.434 15.0853 44.434 15.972H43.216C43.216 15.44 43.02 15.02 42.628 14.712C42.2453 14.404 41.7507 14.25 41.144 14.25C40.528 14.25 40.024 14.3853 39.632 14.656C39.2493 14.9267 39.058 15.2907 39.058 15.748C39.058 15.8973 39.0813 16.0373 39.128 16.168C39.1747 16.2893 39.2307 16.3967 39.296 16.49C39.3707 16.5833 39.4733 16.672 39.604 16.756C39.744 16.84 39.8653 16.91 39.968 16.966C40.0707 17.0127 40.22 17.0687 40.416 17.134C40.6213 17.19 40.7847 17.232 40.906 17.26C41.0273 17.288 41.2047 17.3347 41.438 17.4C41.6713 17.456 41.844 17.498 41.956 17.526C42.0773 17.554 42.2453 17.6007 42.46 17.666C42.684 17.7313 42.8567 17.792 42.978 17.848C43.0993 17.8947 43.2487 17.9647 43.426 18.058C43.6127 18.142 43.7573 18.2307 43.86 18.324C43.9627 18.4173 44.0747 18.5293 44.196 18.66C44.3267 18.7907 44.42 18.9307 44.476 19.08C44.5413 19.2293 44.5973 19.402 44.644 19.598C44.6907 19.794 44.714 19.9993 44.714 20.214C44.714 21.1193 44.3873 21.8333 43.734 22.356C43.09 22.8693 42.264 23.126 41.256 23.126ZM49.3995 21.894H50.2255V23H49.2455C48.4335 23 47.7942 22.7667 47.3275 22.3C46.8608 21.824 46.6275 21.1753 46.6275 20.354V16.518H45.2975V16.308L47.6355 13.844H47.8175V15.44H50.1835V16.518H47.8175V20.312C47.8175 20.6573 47.8782 20.9467 47.9995 21.18C48.1208 21.4133 48.2982 21.5907 48.5315 21.712C48.7742 21.8333 49.0635 21.894 49.3995 21.894ZM58.5226 19.248C58.5226 19.3507 58.5133 19.4953 58.4946 19.682H52.0406C52.1339 20.382 52.4233 20.9467 52.9086 21.376C53.3939 21.796 53.9913 22.006 54.7006 22.006C55.2233 22.006 55.6853 21.894 56.0866 21.67C56.4973 21.4367 56.8239 21.11 57.0666 20.69H58.3126C57.9953 21.474 57.5193 22.0853 56.8846 22.524C56.2499 22.9533 55.5219 23.168 54.7006 23.168C53.6086 23.168 52.6939 22.79 51.9566 22.034C51.2193 21.278 50.8506 20.34 50.8506 19.22C50.8506 18.0907 51.2193 17.1527 51.9566 16.406C52.6939 15.65 53.6086 15.272 54.7006 15.272C55.8299 15.272 56.7493 15.6547 57.4586 16.42C58.1679 17.1853 58.5226 18.128 58.5226 19.248ZM54.7006 16.406C54.2526 16.406 53.8419 16.4947 53.4686 16.672C53.1046 16.8493 52.8013 17.106 52.5586 17.442C52.3159 17.7687 52.1526 18.1467 52.0686 18.576H57.3186C57.2346 18.1373 57.0713 17.7547 56.8286 17.428C56.5859 17.092 56.2826 16.84 55.9186 16.672C55.5546 16.4947 55.1486 16.406 54.7006 16.406ZM66.4583 15.44H67.4103V23H66.4163L66.2903 21.852C65.9356 22.272 65.5016 22.5987 64.9883 22.832C64.4843 23.056 63.929 23.168 63.3223 23.168C62.2116 23.168 61.283 22.7947 60.5363 22.048C59.7896 21.292 59.4163 20.3493 59.4163 19.22C59.4163 18.0907 59.7896 17.1527 60.5363 16.406C61.283 15.65 62.2116 15.272 63.3223 15.272C63.9383 15.272 64.4983 15.3887 65.0023 15.622C65.5156 15.8553 65.9496 16.182 66.3043 16.602L66.4583 15.44ZM61.4183 21.222C61.9503 21.754 62.6176 22.02 63.4203 22.02C64.223 22.02 64.8856 21.754 65.4083 21.222C65.931 20.69 66.1923 20.0227 66.1923 19.22C66.1923 18.4173 65.931 17.75 65.4083 17.218C64.8856 16.686 64.223 16.42 63.4203 16.42C62.6176 16.42 61.9503 16.6907 61.4183 17.232C60.8956 17.764 60.6343 18.4267 60.6343 19.22C60.6343 20.0133 60.8956 20.6807 61.4183 21.222ZM77.8714 15.272C78.4034 15.272 78.87 15.398 79.2714 15.65C79.6727 15.8927 79.9807 16.2333 80.1954 16.672C80.4194 17.1107 80.5314 17.61 80.5314 18.17V23H79.3414V18.534C79.3414 18.086 79.2714 17.6987 79.1314 17.372C79.0007 17.0453 78.8047 16.798 78.5434 16.63C78.2914 16.4527 77.988 16.364 77.6334 16.364C77.0827 16.364 76.6067 16.602 76.2054 17.078C75.8134 17.5447 75.6174 18.1233 75.6174 18.814V23H74.4554V18.534C74.4554 17.8527 74.3014 17.3207 73.9934 16.938C73.6947 16.5553 73.2747 16.364 72.7334 16.364C72.4627 16.364 72.2014 16.4293 71.9494 16.56C71.7067 16.6813 71.492 16.8493 71.3054 17.064C71.128 17.2787 70.9834 17.54 70.8714 17.848C70.7687 18.1467 70.7174 18.4687 70.7174 18.814V23H69.5274V15.44H70.3814L70.5774 16.476C70.7174 16.2893 70.876 16.1213 71.0534 15.972C71.24 15.8227 71.436 15.6967 71.6414 15.594C71.8467 15.4913 72.066 15.412 72.2994 15.356C72.5327 15.3 72.766 15.272 72.9994 15.272C73.5314 15.272 73.998 15.4027 74.3994 15.664C74.8007 15.916 75.104 16.266 75.3094 16.714C75.496 16.4153 75.7247 16.1587 75.9954 15.944C76.266 15.7293 76.56 15.566 76.8774 15.454C77.204 15.3327 77.5354 15.272 77.8714 15.272Z" fill="#373737"/>
<defs>
<radialGradient id="paint0_radial_6_650" cx="0" cy="0" r="1" gradientUnits="userSpaceOnUse" gradientTransform="translate(2.99112e-06 36) rotate(-19.8162) scale(91.4443 34.4495)">
<stop offset="0.71871" stop-color="#F3F3F3"/>
<stop offset="1" stop-color="#B6B6B6"/>
</radialGradient>
</defs>
</svg>
