<svg width="79" height="36" viewBox="0 0 79 36" fill="none" xmlns="http://www.w3.org/2000/svg">
<rect width="77" height="36" rx="18" fill="url(#paint0_radial_6_497)"/>
<path d="M43.302 22H41.916L39.2 17.856L36.512 22H35.126L38.444 16.862L35.378 12.2H36.764L39.214 15.938L41.636 12.2H43.022L39.97 16.904L43.302 22ZM48.3085 14.272C49.4379 14.272 50.3665 14.6453 51.0945 15.392C51.8319 16.1387 52.2005 17.0813 52.2005 18.22C52.2005 19.3493 51.8319 20.292 51.0945 21.048C50.3665 21.7947 49.4379 22.168 48.3085 22.168C47.1232 22.168 46.1525 21.7527 45.3965 20.922L45.2425 22H44.3185V11.738H45.5085V15.392C46.2459 14.6453 47.1792 14.272 48.3085 14.272ZM48.2105 21.02C48.7425 21.02 49.2185 20.8987 49.6385 20.656C50.0585 20.4133 50.3852 20.082 50.6185 19.662C50.8612 19.2327 50.9825 18.752 50.9825 18.22C50.9825 17.4173 50.7212 16.75 50.1985 16.218C49.6759 15.686 49.0132 15.42 48.2105 15.42C47.4172 15.42 46.7545 15.6907 46.2225 16.232C45.6905 16.764 45.4245 17.4267 45.4245 18.22C45.4245 18.528 45.4665 18.8267 45.5505 19.116C45.6439 19.4053 45.7745 19.6667 45.9425 19.9C46.1105 20.124 46.3065 20.32 46.5305 20.488C46.7639 20.656 47.0205 20.7867 47.3005 20.88C47.5899 20.9733 47.8932 21.02 48.2105 21.02ZM57.1339 22.168C56.3872 22.168 55.7059 22 55.0899 21.664C54.4739 21.3187 53.9932 20.8473 53.6479 20.25C53.3026 19.6433 53.1299 18.9667 53.1299 18.22C53.1299 17.0813 53.5079 16.1387 54.2639 15.392C55.0292 14.6453 55.9859 14.272 57.1339 14.272C57.8899 14.272 58.5712 14.4447 59.1779 14.79C59.7939 15.126 60.2746 15.5973 60.6199 16.204C60.9746 16.8013 61.1519 17.4733 61.1519 18.22C61.1519 19.3493 60.7692 20.292 60.0039 21.048C59.2386 21.7947 58.2819 22.168 57.1339 22.168ZM55.1319 20.236C55.6639 20.7587 56.3312 21.02 57.1339 21.02C57.9459 21.02 58.6132 20.7587 59.1359 20.236C59.6679 19.704 59.9339 19.032 59.9339 18.22C59.9339 17.408 59.6679 16.7407 59.1359 16.218C58.6132 15.686 57.9459 15.42 57.1339 15.42C56.3312 15.42 55.6639 15.686 55.1319 16.218C54.6092 16.7407 54.3479 17.408 54.3479 18.22C54.3479 19.032 54.6092 19.704 55.1319 20.236ZM68.3557 22H67.0117L64.8557 18.85L62.6717 22H61.3697L64.1417 18.066L61.5937 14.44H62.9237L64.8557 17.24L66.8297 14.44H68.1317L65.5697 18.024L68.3557 22Z" fill="#373737"/>
<path fill-rule="evenodd" clip-rule="evenodd" d="M6 18C6 11.3726 11.3726 6 18 6C24.6274 6 30 11.3726 30 18C30 24.6274 24.6274 30 18 30C11.3726 30 6 24.6274 6 18ZM16.4405 25.3185C18.2857 25.7901 20.8733 25.2863 22.4558 24.1473C23.7679 23.2029 23.812 22.8699 22.8229 21.3767C22.2133 20.4564 19.4885 17.6341 18.6369 17.0409L18.0948 16.6633L16.886 17.7062C14.7374 19.5601 12.7772 22.0693 12.7772 22.9657C12.7772 23.6354 14.7085 24.8758 16.4405 25.3185ZM12.359 22.5001C12.5034 22.9548 12.4021 22.8878 11.9568 22.2339C10.8275 20.5753 10.4647 17.8441 11.1381 16.071C11.5553 14.9728 12.5384 13.4773 13.0741 13.1264C13.461 12.8728 13.5351 12.8755 14.0673 13.1621C14.3837 13.3325 15.044 13.8315 15.5347 14.271L16.4269 15.0701L15.4715 16.2534C13.5516 18.6311 12.073 21.5987 12.359 22.5001ZM23.9052 22.1824L23.9144 22.8436L24.4098 22.1034C25.1751 20.9599 25.4513 19.7883 25.3835 17.9736C25.3329 16.6206 25.2494 16.2506 24.7795 15.2983C24.4796 14.6904 23.9214 13.8882 23.539 13.5156L22.8439 12.8381L22.2163 13.1741C21.8712 13.359 21.2055 13.862 20.737 14.2919L19.8852 15.0735L20.8353 16.2551C22.8006 18.6993 23.8861 20.7952 23.9052 22.1824ZM18.1632 13.5503C17.9687 13.5598 17.7676 13.4353 17.3043 13.161C16.9304 12.9396 16.1451 12.6287 15.5592 12.4701C14.9733 12.3115 14.5284 12.126 14.5705 12.0578C14.6127 11.9896 15.1894 11.7594 15.8521 11.5463C17.5867 10.9886 19.6398 11.1115 21.1694 11.8646C21.7648 12.1577 22.0913 12.3585 21.895 12.3109C21.4579 12.2046 19.5533 12.7817 18.7908 13.2513C18.4853 13.4395 18.3265 13.5422 18.1632 13.5503Z" fill="#373737"/>
<defs>
<radialGradient id="paint0_radial_6_497" cx="0" cy="0" r="1" gradientUnits="userSpaceOnUse" gradientTransform="translate(2.53095e-06 36) rotate(-23.0671) scale(79.1201 33.6901)">
<stop offset="0.71871" stop-color="#F3F3F3"/>
<stop offset="1" stop-color="#B6B6B6"/>
</radialGradient>
</defs>
</svg>
