<svg width="24" height="22" viewBox="0 0 24 22" fill="none" xmlns="http://www.w3.org/2000/svg">
<path d="M4.89474 16.6863C5.06559 16.2084 4.86708 15.6906 4.46256 15.3944C4.2752 15.2572 4.09028 15.1175 3.91094 14.9699C2.89085 14.1378 2.04348 13.1425 1.52434 11.8774C0.68128 9.82672 0.871188 7.84722 1.97638 5.965C3.1228 4.01274 4.82433 2.79133 6.81735 2.0139C10.1209 0.724249 13.463 0.660435 16.8036 1.84802C18.7578 2.54253 20.4611 3.65719 21.7235 5.43537C23.5334 7.98746 23.407 11.2503 21.4184 13.6691C19.8071 15.6287 17.723 16.6932 15.3864 17.2793C14.1178 17.598 10.8356 17.0533 9.9912 17.7843C8.21226 19.372 6.17126 20.3763 3.90412 20.883C3.69787 20.9286 3.48647 20.9578 3.27762 20.9897C3.01293 21.0307 2.79636 20.9532 2.66057 20.6907C2.52565 20.4283 2.57463 20.1895 2.74307 19.9725C2.93901 19.721 3.1384 19.4713 3.35237 19.2398C4.03014 18.5095 4.55419 17.6388 4.89474 16.6863Z" stroke="#F7F7F7" stroke-width="1.5" stroke-linecap="round" stroke-linejoin="round"/>
</svg>
