<svg width="23" height="26" viewBox="0 0 23 26" fill="none" xmlns="http://www.w3.org/2000/svg">
<path d="M22 22.0519V10.0064C22 9.22453 21.669 8.49262 21.0536 7.9971C19.4362 6.69497 16.1451 4.10691 13.5264 1.80652C12.3576 0.779868 10.5809 0.715016 9.39071 1.71756L2.04763 7.90282C1.38269 8.46292 1 9.28058 1 10.1412V22.0519C1 23.6801 2.34315 25 4 25H4.75C6.40685 25 7.75 23.6801 7.75 22.0519V19.1037C7.75 17.4755 9.09315 16.1556 10.75 16.1556H12.25C13.9069 16.1556 15.25 17.4755 15.25 19.1037V22.0519C15.25 23.6801 16.5931 25 18.25 25H19C20.6569 25 22 23.6801 22 22.0519Z" stroke="#F7F7F7" stroke-width="1.5" stroke-linecap="round" stroke-linejoin="round"/>
</svg>
