<svg width="25" height="24" viewBox="0 0 25 24" fill="none" xmlns="http://www.w3.org/2000/svg">
<path d="M12.5 24C19.4036 24 25 18.6274 25 12C25 5.37258 19.4036 0 12.5 0C5.59644 0 0 5.37258 0 12C0 18.6274 5.59644 24 12.5 24Z" fill="#077BFF"/>
<path d="M18.6816 15.8396C18.6816 16.3695 18.2332 16.7996 17.6797 16.7996H7.66699C7.1145 16.7995 6.66602 16.3695 6.66602 15.8396L6.67383 10.0798C6.67371 10.08 11.6974 12.6462 12.6738 12.6462C13.745 12.6457 18.6738 10.0798 18.6738 10.0798L18.6816 15.8396ZM17.6797 7.19995C18.2332 7.19995 18.6816 7.63001 18.6816 8.15991L18.6738 8.64038C18.6738 8.64038 13.698 11.3264 12.6738 11.3269C11.698 11.3269 6.6726 8.59123 6.66602 8.58765V8.15991C6.66604 7.63002 7.11402 7.19996 7.66699 7.19995H17.6797Z" fill="white"/>
</svg>
